<svg width="23" height="23" viewBox="0 0 23 23" fill="none" xmlns="http://www.w3.org/2000/svg">
<mask id="path-1-inside-1_617_1010" fill="white">
<path d="M22.5768 11.5C22.5768 11.6862 22.5029 11.8648 22.3712 11.9965C22.2395 12.1282 22.0609 12.2021 21.8747 12.2021H12.279V21.7979C12.279 21.9841 12.205 22.1627 12.0733 22.2944C11.9416 22.426 11.7631 22.5 11.5768 22.5C11.3906 22.5 11.212 22.426 11.0804 22.2944C10.9487 22.1627 10.8747 21.9841 10.8747 21.7979V12.2021H1.27897C1.09276 12.2021 0.914166 12.1282 0.782492 11.9965C0.650817 11.8648 0.576843 11.6862 0.576843 11.5C0.576843 11.3138 0.650817 11.1352 0.782492 11.0035C0.914166 10.8718 1.09276 10.7979 1.27897 10.7979H10.8747V1.20213C10.8747 1.01591 10.9487 0.837323 11.0804 0.705648C11.212 0.573974 11.3906 0.5 11.5768 0.5C11.7631 0.5 11.9416 0.573974 12.0733 0.705648C12.205 0.837323 12.279 1.01591 12.279 1.20213V10.7979H21.8747C22.0609 10.7979 22.2395 10.8718 22.3712 11.0035C22.5029 11.1352 22.5768 11.3138 22.5768 11.5Z"/>
</mask>
<path d="M22.5768 11.5C22.5768 11.6862 22.5029 11.8648 22.3712 11.9965C22.2395 12.1282 22.0609 12.2021 21.8747 12.2021H12.279V21.7979C12.279 21.9841 12.205 22.1627 12.0733 22.2944C11.9416 22.426 11.7631 22.5 11.5768 22.5C11.3906 22.5 11.212 22.426 11.0804 22.2944C10.9487 22.1627 10.8747 21.9841 10.8747 21.7979V12.2021H1.27897C1.09276 12.2021 0.914166 12.1282 0.782492 11.9965C0.650817 11.8648 0.576843 11.6862 0.576843 11.5C0.576843 11.3138 0.650817 11.1352 0.782492 11.0035C0.914166 10.8718 1.09276 10.7979 1.27897 10.7979H10.8747V1.20213C10.8747 1.01591 10.9487 0.837323 11.0804 0.705648C11.212 0.573974 11.3906 0.5 11.5768 0.5C11.7631 0.5 11.9416 0.573974 12.0733 0.705648C12.205 0.837323 12.279 1.01591 12.279 1.20213V10.7979H21.8747C22.0609 10.7979 22.2395 10.8718 22.3712 11.0035C22.5029 11.1352 22.5768 11.3138 22.5768 11.5Z" fill="white"/>
<path d="M12.279 12.2021V10.7021H10.779V12.2021H12.279ZM10.8747 12.2021H12.3747V10.7021H10.8747V12.2021ZM0.576843 11.5H-0.923157H0.576843ZM10.8747 10.7979V12.2979H12.3747V10.7979H10.8747ZM11.5768 0.5V-1V0.5ZM12.279 10.7979H10.779V12.2979H12.279V10.7979ZM21.0768 11.5C21.0768 11.2884 21.1609 11.0855 21.3105 10.9358L23.4319 13.0571C23.8448 12.6442 24.0768 12.084 24.0768 11.5H21.0768ZM21.3105 10.9358C21.4602 10.7862 21.6631 10.7021 21.8747 10.7021V13.7021C22.4588 13.7021 23.0189 13.4701 23.4319 13.0571L21.3105 10.9358ZM21.8747 10.7021H12.279V13.7021H21.8747V10.7021ZM10.779 12.2021V21.7979H13.779V12.2021H10.779ZM10.779 21.7979C10.779 21.5863 10.863 21.3833 11.0127 21.2337L13.134 23.355C13.547 22.942 13.779 22.3819 13.779 21.7979H10.779ZM11.0127 21.2337C11.1623 21.0841 11.3652 21 11.5768 21V24C12.1609 24 12.721 23.768 13.134 23.355L11.0127 21.2337ZM11.5768 21C11.7885 21 11.9914 21.0841 12.141 21.2337L10.0197 23.355C10.4327 23.768 10.9928 24 11.5768 24V21ZM12.141 21.2337C12.2907 21.3833 12.3747 21.5863 12.3747 21.7979H9.37472C9.37472 22.3819 9.60673 22.942 10.0197 23.355L12.141 21.2337ZM12.3747 21.7979V12.2021H9.37472V21.7979H12.3747ZM10.8747 10.7021H1.27897V13.7021H10.8747V10.7021ZM1.27897 10.7021C1.49058 10.7021 1.69352 10.7862 1.84315 10.9358L-0.278169 13.0571C0.134813 13.4701 0.694933 13.7021 1.27897 13.7021V10.7021ZM1.84315 10.9358C1.99278 11.0855 2.07684 11.2884 2.07684 11.5H-0.923157C-0.923157 12.084 -0.691149 12.6442 -0.278169 13.0571L1.84315 10.9358ZM2.07684 11.5C2.07684 11.7116 1.99278 11.9146 1.84315 12.0642L-0.278169 9.94286C-0.691147 10.3558 -0.923157 10.916 -0.923157 11.5H2.07684ZM1.84315 12.0642C1.69352 12.2138 1.49058 12.2979 1.27897 12.2979V9.29787C0.694929 9.29787 0.134809 9.52988 -0.278169 9.94286L1.84315 12.0642ZM1.27897 12.2979H10.8747V9.29787H1.27897V12.2979ZM12.3747 10.7979V1.20213H9.37472V10.7979H12.3747ZM12.3747 1.20213C12.3747 1.41374 12.2907 1.61668 12.141 1.76631L10.0197 -0.355012C9.60673 0.057966 9.37472 0.618085 9.37472 1.20213H12.3747ZM12.141 1.76631C11.9914 1.91594 11.7885 2 11.5768 2V-1C10.9928 -1 10.4327 -0.767991 10.0197 -0.355012L12.141 1.76631ZM11.5768 2C11.3652 2 11.1623 1.91594 11.0127 1.76631L13.134 -0.355012C12.721 -0.767992 12.1609 -1 11.5768 -1V2ZM11.0127 1.76631C10.863 1.61668 10.779 1.41373 10.779 1.20213H13.779C13.779 0.61809 13.547 0.0579694 13.134 -0.355012L11.0127 1.76631ZM10.779 1.20213V10.7979H13.779V1.20213H10.779ZM12.279 12.2979H21.8747V9.29787H12.279V12.2979ZM21.8747 12.2979C21.6631 12.2979 21.4602 12.2138 21.3105 12.0642L23.4319 9.94286C23.0189 9.52988 22.4588 9.29787 21.8747 9.29787V12.2979ZM21.3105 12.0642C21.1609 11.9145 21.0768 11.7116 21.0768 11.5H24.0768C24.0768 10.916 23.8448 10.3558 23.4319 9.94286L21.3105 12.0642Z" fill="white" mask="url(#path-1-inside-1_617_1010)"/>
</svg>
