<svg width="128" height="28" viewBox="0 0 128 28" fill="none" xmlns="http://www.w3.org/2000/svg">
<path d="M3.30835 6.6167C5.1355 6.6167 6.6167 5.1355 6.6167 3.30835C6.6167 1.4812 5.1355 0 3.30835 0C1.4812 0 0 1.4812 0 3.30835C0 5.1355 1.4812 6.6167 3.30835 6.6167Z" fill="#CD191E"/>
<path d="M5.71438 14.7373H0.902238C0.570029 14.7373 0.30072 15.0066 0.30072 15.3388V20.151C0.30072 20.4832 0.570029 20.7525 0.902238 20.7525H5.71438C6.04659 20.7525 6.3159 20.4832 6.3159 20.151V15.3388C6.3159 15.0066 6.04659 14.7373 5.71438 14.7373Z" fill="white"/>
<path d="M5.71438 7.5188H0.902238C0.570029 7.5188 0.30072 7.78811 0.30072 8.12032V12.9325C0.30072 13.2647 0.570029 13.534 0.902238 13.534H5.71438C6.04659 13.534 6.3159 13.2647 6.3159 12.9325V8.12032C6.3159 7.78811 6.04659 7.5188 5.71438 7.5188Z" fill="white"/>
<path d="M12.9326 0.300781H8.12045C7.78825 0.300781 7.51894 0.57009 7.51894 0.9023V5.71445C7.51894 6.04666 7.78825 6.31596 8.12045 6.31596H12.9326C13.2648 6.31596 13.5341 6.04666 13.5341 5.71445V0.9023C13.5341 0.57009 13.2648 0.300781 12.9326 0.300781Z" fill="white"/>
<path d="M12.9326 7.5188H8.12045C7.78825 7.5188 7.51894 7.78811 7.51894 8.12032V12.9325C7.51894 13.2647 7.78825 13.534 8.12045 13.534H12.9326C13.2648 13.534 13.5341 13.2647 13.5341 12.9325V8.12032C13.5341 7.78811 13.2648 7.5188 12.9326 7.5188Z" fill="white"/>
<path d="M12.9326 14.7373H8.12045C7.78825 14.7373 7.51894 15.0066 7.51894 15.3388V20.151C7.51894 20.4832 7.78825 20.7525 8.12045 20.7525H12.9326C13.2648 20.7525 13.5341 20.4832 13.5341 20.151V15.3388C13.5341 15.0066 13.2648 14.7373 12.9326 14.7373Z" fill="white"/>
<path d="M5.71438 21.9553H0.902238C0.570029 21.9553 0.30072 22.2246 0.30072 22.5568V27.369C0.30072 27.7012 0.570029 27.9705 0.902238 27.9705H5.71438C6.04659 27.9705 6.3159 27.7012 6.3159 27.369V22.5568C6.3159 22.2246 6.04659 21.9553 5.71438 21.9553Z" fill="white"/>
<path d="M12.9326 21.9553H8.12045C7.78825 21.9553 7.51894 22.2246 7.51894 22.5568V27.369C7.51894 27.7012 7.78825 27.9705 8.12045 27.9705H12.9326C13.2648 27.9705 13.5341 27.7012 13.5341 27.369V22.5568C13.5341 22.2246 13.2648 21.9553 12.9326 21.9553Z" fill="white"/>
<path d="M20.1508 0.300781H15.3386C15.0064 0.300781 14.7371 0.57009 14.7371 0.9023V5.71445C14.7371 6.04666 15.0064 6.31596 15.3386 6.31596H20.1508C20.483 6.31596 20.7523 6.04666 20.7523 5.71445V0.9023C20.7523 0.57009 20.483 0.300781 20.1508 0.300781Z" fill="white"/>
<path d="M20.1508 14.7373H15.3386C15.0064 14.7373 14.7371 15.0066 14.7371 15.3388V20.151C14.7371 20.4832 15.0064 20.7525 15.3386 20.7525H20.1508C20.483 20.7525 20.7523 20.4832 20.7523 20.151V15.3388C20.7523 15.0066 20.483 14.7373 20.1508 14.7373Z" fill="white"/>
<path d="M123.331 28C122.45 28 121.657 27.8441 120.951 27.5322C120.26 27.2067 119.711 26.7727 119.304 26.2303C118.897 25.6742 118.68 25.0572 118.653 24.3791H121.053C121.094 24.8538 121.318 25.2538 121.724 25.5793C122.145 25.8912 122.667 26.0472 123.291 26.0472C123.942 26.0472 124.443 25.9251 124.796 25.681C125.162 25.4234 125.345 25.0979 125.345 24.7046C125.345 24.2842 125.142 23.9723 124.735 23.7688C124.342 23.5654 123.711 23.3417 122.843 23.0976C122.002 22.867 121.318 22.6432 120.789 22.4263C120.26 22.2093 119.799 21.877 119.405 21.4295C119.026 20.982 118.836 20.392 118.836 19.6597C118.836 19.063 119.012 18.5205 119.365 18.0323C119.717 17.5306 120.219 17.1373 120.87 16.8525C121.535 16.5677 122.294 16.4253 123.148 16.4253C124.423 16.4253 125.447 16.7508 126.22 17.4017C127.007 18.0391 127.427 18.9138 127.481 20.0259H125.162C125.122 19.5241 124.918 19.124 124.552 18.8257C124.186 18.5273 123.691 18.3781 123.067 18.3781C122.457 18.3781 121.989 18.4934 121.663 18.724C121.338 18.9545 121.175 19.2596 121.175 19.6394C121.175 19.9377 121.284 20.1886 121.501 20.392C121.718 20.5955 121.982 20.7582 122.294 20.8802C122.606 20.9887 123.067 21.1311 123.677 21.3074C124.491 21.5244 125.155 21.7482 125.671 21.9787C126.2 22.1957 126.654 22.5212 127.034 22.9552C127.413 23.3891 127.61 23.9655 127.624 24.6842C127.624 25.3216 127.447 25.8912 127.095 26.393C126.742 26.8948 126.24 27.2881 125.589 27.5729C124.952 27.8576 124.199 28 123.331 28Z" fill="white"/>
<path d="M111.153 28C110.095 28 109.139 27.7627 108.284 27.2881C107.43 26.7998 106.759 26.1218 106.27 25.2538C105.782 24.3723 105.538 23.3552 105.538 22.2025C105.538 21.0633 105.789 20.053 106.291 19.1715C106.793 18.29 107.477 17.6119 108.345 17.1373C109.213 16.6626 110.183 16.4253 111.254 16.4253C112.326 16.4253 113.295 16.6626 114.163 17.1373C115.031 17.6119 115.716 18.29 116.218 19.1715C116.72 20.053 116.97 21.0633 116.97 22.2025C116.97 23.3417 116.713 24.352 116.197 25.2335C115.682 26.115 114.977 26.7998 114.082 27.2881C113.2 27.7627 112.224 28 111.153 28ZM111.153 25.9862C111.749 25.9862 112.305 25.8438 112.821 25.559C113.35 25.2742 113.777 24.847 114.102 24.2774C114.428 23.7078 114.59 23.0162 114.59 22.2025C114.59 21.3888 114.434 20.7039 114.123 20.1479C113.811 19.5783 113.397 19.1512 112.882 18.8664C112.366 18.5816 111.81 18.4392 111.214 18.4392C110.617 18.4392 110.061 18.5816 109.546 18.8664C109.044 19.1512 108.644 19.5783 108.345 20.1479C108.047 20.7039 107.898 21.3888 107.898 22.2025C107.898 23.4095 108.203 24.3452 108.813 25.0097C109.437 25.6607 110.217 25.9862 111.153 25.9862Z" fill="white"/>
<path d="M91.7311 22.1618C91.7311 21.0362 91.9617 20.0394 92.4228 19.1715C92.8974 18.3035 93.5348 17.6323 94.3349 17.1576C95.1486 16.6694 96.0505 16.4253 97.0405 16.4253C97.7728 16.4253 98.4915 16.588 99.1967 16.9135C99.9155 17.2254 100.485 17.6458 100.905 18.1747V12.7637H103.245V27.8169H100.905V26.1285C100.526 26.671 99.9969 27.1185 99.3188 27.4711C98.6543 27.8237 97.888 28 97.0201 28C96.0437 28 95.1486 27.7559 94.3349 27.2677C93.5348 26.7659 92.8974 26.0743 92.4228 25.1928C91.9617 24.2977 91.7311 23.2874 91.7311 22.1618ZM100.905 22.2025C100.905 21.4295 100.743 20.7582 100.417 20.1886C100.105 19.619 99.6917 19.185 99.1764 18.8867C98.6611 18.5883 98.105 18.4392 97.5083 18.4392C96.9116 18.4392 96.3556 18.5883 95.8403 18.8867C95.3249 19.1715 94.9045 19.5987 94.579 20.1683C94.2671 20.7243 94.1112 21.3888 94.1112 22.1618C94.1112 22.9348 94.2671 23.6129 94.579 24.196C94.9045 24.7792 95.3249 25.2267 95.8403 25.5386C96.3692 25.837 96.9252 25.9861 97.5083 25.9861C98.105 25.9861 98.6611 25.837 99.1764 25.5386C99.6917 25.2403 100.105 24.8063 100.417 24.2367C100.743 23.6536 100.905 22.9755 100.905 22.2025Z" fill="white"/>
<path d="M84.9488 16.4253C85.8303 16.4253 86.6168 16.6084 87.3085 16.9745C88.0137 17.3407 88.5629 17.8832 88.9562 18.6019C89.3495 19.3207 89.5461 20.1886 89.5461 21.2057V27.817H87.2474V21.5515C87.2474 20.548 86.9965 19.7818 86.4948 19.2529C85.993 18.7104 85.3081 18.4392 84.4402 18.4392C83.5723 18.4392 82.8806 18.7104 82.3653 19.2529C81.8635 19.7818 81.6126 20.548 81.6126 21.5515V27.817H79.2936V16.6084H81.6126V17.8899C81.9924 17.4288 82.4738 17.0695 83.0569 16.8118C83.6536 16.5541 84.2842 16.4253 84.9488 16.4253Z" fill="white"/>
<path d="M64.7339 22.1618C64.7339 21.0362 64.9645 20.0394 65.4256 19.1715C65.9002 18.3036 66.5376 17.6323 67.3378 17.1576C68.1514 16.6694 69.0465 16.4253 70.0229 16.4253C70.9044 16.4253 71.6707 16.6016 72.3216 16.9542C72.9861 17.2932 73.515 17.7204 73.9083 18.2358V16.6084H76.2477V27.817H73.9083V26.1489C73.515 26.6778 72.9793 27.1185 72.3013 27.4711C71.6232 27.8237 70.8502 28 69.9823 28C69.0194 28 68.1379 27.7559 67.3378 27.2677C66.5376 26.7659 65.9002 26.0743 65.4256 25.1928C64.9645 24.2977 64.7339 23.2874 64.7339 22.1618ZM73.9083 22.2025C73.9083 21.4295 73.7456 20.7582 73.4201 20.1886C73.1082 19.619 72.6946 19.1851 72.1792 18.8867C71.6639 18.5884 71.1079 18.4392 70.5112 18.4392C69.9144 18.4392 69.3584 18.5884 68.8431 18.8867C68.3277 19.1715 67.9073 19.5987 67.5819 20.1683C67.27 20.7243 67.114 21.3888 67.114 22.1618C67.114 22.9348 67.27 23.6129 67.5819 24.196C67.9073 24.7792 68.3277 25.2267 68.8431 25.5386C69.372 25.837 69.928 25.9862 70.5112 25.9862C71.1079 25.9862 71.6639 25.837 72.1792 25.5386C72.6946 25.2403 73.1082 24.8063 73.4201 24.2367C73.7456 23.6536 73.9083 22.9755 73.9083 22.2025Z" fill="white"/>
<path d="M57.9383 16.4253C58.8198 16.4253 59.6064 16.6084 60.298 16.9745C61.0032 17.3407 61.5525 17.8832 61.9458 18.6019C62.3526 19.3207 62.556 20.1886 62.556 21.2057V27.817H60.2574V21.5515C60.2574 20.548 60.0065 19.7818 59.5047 19.2529C59.0029 18.7104 58.3181 18.4392 57.4501 18.4392C56.5822 18.4392 55.8906 18.7104 55.3752 19.2529C54.8734 19.7818 54.6226 20.548 54.6226 21.5515V27.817H52.3239V21.5515C52.3239 20.548 52.073 19.7818 51.5712 19.2529C51.0694 18.7104 50.3846 18.4392 49.5166 18.4392C48.6487 18.4392 47.9571 18.7104 47.4417 19.2529C46.94 19.7818 46.6891 20.548 46.6891 21.5515V27.817H44.3701V16.6084H46.6891V17.8899C47.0688 17.4288 47.5502 17.0695 48.1334 16.8118C48.7165 16.5541 49.3403 16.4253 50.0049 16.4253C50.8999 16.4253 51.7 16.6152 52.4052 16.9949C53.1104 17.3746 53.6529 17.9238 54.0326 18.6426C54.3717 17.9645 54.9006 17.4288 55.6193 17.0356C56.3381 16.6287 57.1111 16.4253 57.9383 16.4253Z" fill="white"/>
<path d="M38.8819 18.2358C39.221 17.6662 39.6685 17.2254 40.2245 16.9135C40.7941 16.588 41.4654 16.4253 42.2384 16.4253V18.8257H41.6485C40.7399 18.8257 40.0482 19.0562 39.5736 19.5173C39.1125 19.9784 38.8819 20.7785 38.8819 21.9177V27.817H36.5629V16.6084H38.8819V18.2358Z" fill="white"/>
<path d="M28.4525 28C27.3947 28 26.4386 27.7627 25.5843 27.2881C24.7299 26.7998 24.0586 26.1218 23.5704 25.2538C23.0822 24.3723 22.8381 23.3552 22.8381 22.2025C22.8381 21.0633 23.0889 20.053 23.5907 19.1715C24.0925 18.29 24.7774 17.6119 25.6453 17.1373C26.5132 16.6626 27.4829 16.4253 28.5542 16.4253C29.6256 16.4253 30.5952 16.6626 31.4632 17.1373C32.3311 17.6119 33.016 18.29 33.5177 19.1715C34.0195 20.053 34.2704 21.0633 34.2704 22.2025C34.2704 23.3417 34.0127 24.352 33.4974 25.2335C32.9821 26.115 32.2769 26.7998 31.3818 27.2881C30.5003 27.7627 29.5239 28 28.4525 28ZM28.4525 25.9862C29.0492 25.9862 29.6052 25.8438 30.1206 25.559C30.6495 25.2742 31.0767 24.847 31.4021 24.2774C31.7276 23.7078 31.8904 23.0162 31.8904 22.2025C31.8904 21.3888 31.7344 20.7039 31.4225 20.1479C31.1106 19.5783 30.6969 19.1512 30.1816 18.8664C29.6663 18.5816 29.1103 18.4392 28.5135 18.4392C27.9168 18.4392 27.3608 18.5816 26.8455 18.8664C26.3437 19.1512 25.9436 19.5783 25.6453 20.1479C25.3469 20.7039 25.1978 21.3888 25.1978 22.2025C25.1978 23.4095 25.5029 24.3452 26.1132 25.0097C26.737 25.6607 27.5168 25.9862 28.4525 25.9862Z" fill="white"/>
</svg>
