<svg width="15" height="18" viewBox="0 0 15 18" fill="none" xmlns="http://www.w3.org/2000/svg">
<path d="M0.461548 15.3V13.5H2.27886V7.2C2.27886 5.955 2.65746 4.8489 3.41467 3.8817C4.17188 2.9145 5.15626 2.2806 6.3678 1.98V1.35C6.3678 0.975 6.50046 0.6564 6.76579 0.3942C7.03111 0.132 7.35278 0.0006 7.73078 0C8.10938 0 8.43135 0.1314 8.69668 0.3942C8.962 0.657 9.09437 0.9756 9.09376 1.35V1.98C10.3053 2.28 11.2897 2.9139 12.0469 3.8817C12.8041 4.8495 13.1827 5.9556 13.1827 7.2V13.5H15V15.3H0.461548ZM7.73078 18C7.23102 18 6.80335 17.8239 6.44776 17.4717C6.09217 17.1195 5.91408 16.6956 5.91347 16.2H9.54809C9.54809 16.695 9.37029 17.1189 9.01471 17.4717C8.65912 17.8245 8.23114 18.0006 7.73078 18ZM4.09616 13.5H11.3654V7.2C11.3654 6.21 11.0095 5.3625 10.2977 4.6575C9.58595 3.9525 8.7303 3.6 7.73078 3.6C6.73126 3.6 5.87561 3.9525 5.16383 4.6575C4.45205 5.3625 4.09616 6.21 4.09616 7.2V13.5Z" fill="white"/>
</svg>
