<svg width="328" height="310" viewBox="0 0 328 310" fill="none" xmlns="http://www.w3.org/2000/svg">
<g filter="url(#filter0_d_192_714)">
<rect x="4" y="2" width="320" height="302" rx="20" fill="white"/>
<path fill-rule="evenodd" clip-rule="evenodd" d="M19 164C19 175.046 27.9543 184 39 184H309L19 22V164Z" fill="#182B40"/>
<path d="M309 22H19L309 184V22Z" fill="#00046B"/>
<path d="M43 41H68V67H48C45.2386 67 43 64.7614 43 62V41Z" fill="white"/>
<path d="M73 41H98V67H78C75.2386 67 73 64.7614 73 62V41Z" fill="white"/>
<path d="M103 41H128V67H108C105.239 67 103 64.7614 103 62V41Z" fill="white"/>
<path d="M133 41H158V67H138C135.239 67 133 64.7614 133 62V41Z" fill="white"/>
<path d="M163 41H188V67H168C165.239 67 163 64.7614 163 62V41Z" fill="white"/>
<path d="M43 72H68V98H48C45.2386 98 43 95.7614 43 93V72Z" fill="white"/>
<path d="M73 72H98V98H78C75.2386 98 73 95.7614 73 93V72Z" fill="white"/>
<path d="M103 72H128V98H108C105.239 98 103 95.7614 103 93V72Z" fill="white"/>
<path d="M133 72H158V98H138C135.239 98 133 95.7614 133 93V72Z" fill="white"/>
<path d="M163 72H188V98H168C165.239 98 163 95.7614 163 93V72Z" fill="white"/>
<path d="M43 103H68V129H48C45.2386 129 43 126.761 43 124V103Z" fill="white"/>
<path d="M73 103H98V129H78C75.2386 129 73 126.761 73 124V103Z" fill="white"/>
<path d="M103 103H128V129H108C105.239 129 103 126.761 103 124V103Z" fill="white"/>
<path d="M133 103H158V129H138C135.239 129 133 126.761 133 124V103Z" fill="white"/>
<path d="M163 103H188V129H168C165.239 129 163 126.761 163 124V103Z" fill="white"/>
<path d="M43 134H68V160H48C45.2386 160 43 157.761 43 155V134Z" fill="white"/>
<path d="M73 134H98V160H78C75.2386 160 73 157.761 73 155V134Z" fill="white"/>
<path d="M103 134H128V160H108C105.239 160 103 157.761 103 155V134Z" fill="white"/>
<path d="M133 134H158V160H138C135.239 160 133 157.761 133 155V134Z" fill="white"/>
<path d="M163 134H188V160H168C165.239 160 163 157.761 163 155V134Z" fill="white"/>
<path d="M208.67 41.7898V42.7273H204.852V41.7898H208.67ZM214.19 41.7898V42.7273H210.372V41.7898H214.19ZM219.71 41.7898V42.7273H215.891V41.7898H219.71ZM225.229 41.7898V42.7273H221.411V41.7898H225.229ZM230.749 41.7898V42.7273H226.93V41.7898H230.749ZM236.268 41.7898V42.7273H232.45V41.7898H236.268ZM241.788 41.7898V42.7273H237.969V41.7898H241.788ZM247.307 41.7898V42.7273H243.489V41.7898H247.307ZM252.827 41.7898V42.7273H249.009V41.7898H252.827ZM258.346 41.7898V42.7273H254.528V41.7898H258.346ZM263.866 41.7898V42.7273H260.048V41.7898H263.866ZM269.385 41.7898V42.7273H265.567V41.7898H269.385Z" fill="white"/>
<path d="M208.67 49.7898V50.7273H204.852V49.7898H208.67ZM214.19 49.7898V50.7273H210.372V49.7898H214.19ZM219.71 49.7898V50.7273H215.891V49.7898H219.71ZM225.229 49.7898V50.7273H221.411V49.7898H225.229ZM230.749 49.7898V50.7273H226.93V49.7898H230.749ZM236.268 49.7898V50.7273H232.45V49.7898H236.268ZM241.788 49.7898V50.7273H237.969V49.7898H241.788ZM247.307 49.7898V50.7273H243.489V49.7898H247.307ZM252.827 49.7898V50.7273H249.009V49.7898H252.827ZM258.346 49.7898V50.7273H254.528V49.7898H258.346ZM263.866 49.7898V50.7273H260.048V49.7898H263.866ZM269.385 49.7898V50.7273H265.567V49.7898H269.385Z" fill="white"/>
<path d="M208.67 59.7898V60.7273H204.852V59.7898H208.67ZM214.19 59.7898V60.7273H210.372V59.7898H214.19ZM219.71 59.7898V60.7273H215.891V59.7898H219.71ZM225.229 59.7898V60.7273H221.411V59.7898H225.229ZM230.749 59.7898V60.7273H226.93V59.7898H230.749ZM236.268 59.7898V60.7273H232.45V59.7898H236.268ZM241.788 59.7898V60.7273H237.969V59.7898H241.788ZM247.307 59.7898V60.7273H243.489V59.7898H247.307ZM252.827 59.7898V60.7273H249.009V59.7898H252.827ZM258.346 59.7898V60.7273H254.528V59.7898H258.346ZM263.866 59.7898V60.7273H260.048V59.7898H263.866ZM269.385 59.7898V60.7273H265.567V59.7898H269.385Z" fill="white"/>
<path d="M208.67 71.7898V72.7273H204.852V71.7898H208.67ZM214.19 71.7898V72.7273H210.372V71.7898H214.19ZM219.71 71.7898V72.7273H215.891V71.7898H219.71ZM225.229 71.7898V72.7273H221.411V71.7898H225.229ZM230.749 71.7898V72.7273H226.93V71.7898H230.749ZM236.268 71.7898V72.7273H232.45V71.7898H236.268ZM241.788 71.7898V72.7273H237.969V71.7898H241.788ZM247.307 71.7898V72.7273H243.489V71.7898H247.307ZM252.827 71.7898V72.7273H249.009V71.7898H252.827ZM258.346 71.7898V72.7273H254.528V71.7898H258.346ZM263.866 71.7898V72.7273H260.048V71.7898H263.866ZM269.385 71.7898V72.7273H265.567V71.7898H269.385Z" fill="white"/>
<path d="M208.67 80.7898V81.7273H204.852V80.7898H208.67ZM214.19 80.7898V81.7273H210.372V80.7898H214.19ZM219.71 80.7898V81.7273H215.891V80.7898H219.71ZM225.229 80.7898V81.7273H221.411V80.7898H225.229ZM230.749 80.7898V81.7273H226.93V80.7898H230.749ZM236.268 80.7898V81.7273H232.45V80.7898H236.268ZM241.788 80.7898V81.7273H237.969V80.7898H241.788ZM247.307 80.7898V81.7273H243.489V80.7898H247.307ZM252.827 80.7898V81.7273H249.009V80.7898H252.827ZM258.346 80.7898V81.7273H254.528V80.7898H258.346ZM263.866 80.7898V81.7273H260.048V80.7898H263.866ZM269.385 80.7898V81.7273H265.567V80.7898H269.385Z" fill="white"/>
<path d="M19.56 206.4C19.56 205.301 19.8053 204.32 20.296 203.456C20.7973 202.581 21.4747 201.904 22.328 201.424C23.192 200.933 24.1573 200.688 25.224 200.688C26.472 200.688 27.5653 201.008 28.504 201.648C29.4427 202.288 30.0987 203.173 30.472 204.304H27.896C27.64 203.771 27.2773 203.371 26.808 203.104C26.3493 202.837 25.816 202.704 25.208 202.704C24.5573 202.704 23.976 202.859 23.464 203.168C22.9627 203.467 22.568 203.893 22.28 204.448C22.0027 205.003 21.864 205.653 21.864 206.4C21.864 207.136 22.0027 207.787 22.28 208.352C22.568 208.907 22.9627 209.339 23.464 209.648C23.976 209.947 24.5573 210.096 25.208 210.096C25.816 210.096 26.3493 209.963 26.808 209.696C27.2773 209.419 27.64 209.013 27.896 208.48H30.472C30.0987 209.621 29.4427 210.512 28.504 211.152C27.576 211.781 26.4827 212.096 25.224 212.096C24.1573 212.096 23.192 211.856 22.328 211.376C21.4747 210.885 20.7973 210.208 20.296 209.344C19.8053 208.48 19.56 207.499 19.56 206.4ZM36.3213 212.144C35.4679 212.144 34.6999 211.957 34.0173 211.584C33.3346 211.2 32.7959 210.661 32.4013 209.968C32.0173 209.275 31.8253 208.475 31.8253 207.568C31.8253 206.661 32.0226 205.861 32.4173 205.168C32.8226 204.475 33.3719 203.941 34.0653 203.568C34.7586 203.184 35.5319 202.992 36.3853 202.992C37.2386 202.992 38.0119 203.184 38.7053 203.568C39.3986 203.941 39.9426 204.475 40.3373 205.168C40.7426 205.861 40.9453 206.661 40.9453 207.568C40.9453 208.475 40.7373 209.275 40.3212 209.968C39.9159 210.661 39.3613 211.2 38.6573 211.584C37.9639 211.957 37.1853 212.144 36.3213 212.144ZM36.3213 210.192C36.7266 210.192 37.1053 210.096 37.4573 209.904C37.8199 209.701 38.1079 209.403 38.3213 209.008C38.5346 208.613 38.6413 208.133 38.6413 207.568C38.6413 206.725 38.4173 206.08 37.9693 205.632C37.5319 205.173 36.9933 204.944 36.3533 204.944C35.7133 204.944 35.1746 205.173 34.7373 205.632C34.3106 206.08 34.0973 206.725 34.0973 207.568C34.0973 208.411 34.3053 209.061 34.7213 209.52C35.1479 209.968 35.6813 210.192 36.3213 210.192ZM47.5004 203.008C48.5564 203.008 49.4097 203.344 50.0604 204.016C50.711 204.677 51.0364 205.605 51.0364 206.8V212H48.7964V207.104C48.7964 206.4 48.6204 205.861 48.2684 205.488C47.9164 205.104 47.4364 204.912 46.8284 204.912C46.2097 204.912 45.719 205.104 45.3564 205.488C45.0044 205.861 44.8284 206.4 44.8284 207.104V212H42.5884V203.136H44.8284V204.24C45.127 203.856 45.5057 203.557 45.9644 203.344C46.4337 203.12 46.9457 203.008 47.5004 203.008ZM55.7745 204.976V209.264C55.7745 209.563 55.8438 209.781 55.9825 209.92C56.1318 210.048 56.3772 210.112 56.7185 210.112H57.7585V212H56.3505C54.4625 212 53.5185 211.083 53.5185 209.248V204.976H52.4625V203.136H53.5185V200.944H55.7745V203.136H57.7585V204.976H55.7745ZM61.6096 204.512C61.8976 204.043 62.271 203.675 62.7296 203.408C63.199 203.141 63.7323 203.008 64.3296 203.008V205.36H63.7376C63.0336 205.36 62.5003 205.525 62.1376 205.856C61.7856 206.187 61.6096 206.763 61.6096 207.584V212H59.3696V203.136H61.6096V204.512ZM69.7744 212.144C68.921 212.144 68.153 211.957 67.4704 211.584C66.7877 211.2 66.249 210.661 65.8544 209.968C65.4704 209.275 65.2784 208.475 65.2784 207.568C65.2784 206.661 65.4757 205.861 65.8704 205.168C66.2757 204.475 66.825 203.941 67.5184 203.568C68.2117 203.184 68.985 202.992 69.8384 202.992C70.6917 202.992 71.465 203.184 72.1584 203.568C72.8517 203.941 73.3957 204.475 73.7904 205.168C74.1957 205.861 74.3984 206.661 74.3984 207.568C74.3984 208.475 74.1904 209.275 73.7744 209.968C73.369 210.661 72.8144 211.2 72.1104 211.584C71.417 211.957 70.6384 212.144 69.7744 212.144ZM69.7744 210.192C70.1797 210.192 70.5584 210.096 70.9104 209.904C71.273 209.701 71.561 209.403 71.7744 209.008C71.9877 208.613 72.0944 208.133 72.0944 207.568C72.0944 206.725 71.8704 206.08 71.4224 205.632C70.985 205.173 70.4464 204.944 69.8064 204.944C69.1664 204.944 68.6277 205.173 68.1904 205.632C67.7637 206.08 67.5504 206.725 67.5504 207.568C67.5504 208.411 67.7584 209.061 68.1744 209.52C68.601 209.968 69.1344 210.192 69.7744 210.192ZM78.2815 200.16V212H76.0415V200.16H78.2815ZM79.9186 207.536C79.9186 206.64 80.0946 205.845 80.4466 205.152C80.8093 204.459 81.2946 203.925 81.9026 203.552C82.5213 203.179 83.2093 202.992 83.9666 202.992C84.628 202.992 85.204 203.125 85.6946 203.392C86.196 203.659 86.596 203.995 86.8946 204.4V203.136H89.1506V212H86.8946V210.704C86.6066 211.12 86.2066 211.467 85.6946 211.744C85.1933 212.011 84.612 212.144 83.9506 212.144C83.204 212.144 82.5213 211.952 81.9026 211.568C81.2946 211.184 80.8093 210.645 80.4466 209.952C80.0946 209.248 79.9186 208.443 79.9186 207.536ZM86.8946 207.568C86.8946 207.024 86.788 206.56 86.5746 206.176C86.3613 205.781 86.0733 205.483 85.7106 205.28C85.348 205.067 84.9586 204.96 84.5426 204.96C84.1266 204.96 83.7426 205.061 83.3906 205.264C83.0386 205.467 82.7506 205.765 82.5266 206.16C82.3133 206.544 82.2066 207.003 82.2066 207.536C82.2066 208.069 82.3133 208.539 82.5266 208.944C82.7506 209.339 83.0386 209.643 83.3906 209.856C83.7533 210.069 84.1373 210.176 84.5426 210.176C84.9586 210.176 85.348 210.075 85.7106 209.872C86.0733 209.659 86.3613 209.36 86.5746 208.976C86.788 208.581 86.8946 208.112 86.8946 207.568ZM90.7624 207.536C90.7624 206.64 90.9384 205.845 91.2904 205.152C91.653 204.459 92.1437 203.925 92.7624 203.552C93.381 203.179 94.069 202.992 94.8264 202.992C95.4024 202.992 95.9517 203.12 96.4744 203.376C96.997 203.621 97.413 203.952 97.7224 204.368V200.16H99.9944V212H97.7224V210.688C97.445 211.125 97.0557 211.477 96.5544 211.744C96.053 212.011 95.4717 212.144 94.8104 212.144C94.0637 212.144 93.381 211.952 92.7624 211.568C92.1437 211.184 91.653 210.645 91.2904 209.952C90.9384 209.248 90.7624 208.443 90.7624 207.536ZM97.7384 207.568C97.7384 207.024 97.6317 206.56 97.4184 206.176C97.205 205.781 96.917 205.483 96.5544 205.28C96.1917 205.067 95.8024 204.96 95.3864 204.96C94.9704 204.96 94.5864 205.061 94.2344 205.264C93.8824 205.467 93.5944 205.765 93.3704 206.16C93.157 206.544 93.0504 207.003 93.0504 207.536C93.0504 208.069 93.157 208.539 93.3704 208.944C93.5944 209.339 93.8824 209.643 94.2344 209.856C94.597 210.069 94.981 210.176 95.3864 210.176C95.8024 210.176 96.1917 210.075 96.5544 209.872C96.917 209.659 97.205 209.36 97.4184 208.976C97.6317 208.581 97.7384 208.112 97.7384 207.568ZM106.118 212.144C105.265 212.144 104.497 211.957 103.814 211.584C103.131 211.2 102.593 210.661 102.198 209.968C101.814 209.275 101.622 208.475 101.622 207.568C101.622 206.661 101.819 205.861 102.214 205.168C102.619 204.475 103.169 203.941 103.862 203.568C104.555 203.184 105.329 202.992 106.182 202.992C107.035 202.992 107.809 203.184 108.502 203.568C109.195 203.941 109.739 204.475 110.134 205.168C110.539 205.861 110.742 206.661 110.742 207.568C110.742 208.475 110.534 209.275 110.118 209.968C109.713 210.661 109.158 211.2 108.454 211.584C107.761 211.957 106.982 212.144 106.118 212.144ZM106.118 210.192C106.523 210.192 106.902 210.096 107.254 209.904C107.617 209.701 107.905 209.403 108.118 209.008C108.331 208.613 108.438 208.133 108.438 207.568C108.438 206.725 108.214 206.08 107.766 205.632C107.329 205.173 106.79 204.944 106.15 204.944C105.51 204.944 104.971 205.173 104.534 205.632C104.107 206.08 103.894 206.725 103.894 207.568C103.894 208.411 104.102 209.061 104.518 209.52C104.945 209.968 105.478 210.192 106.118 210.192ZM115.777 212.144C115.052 212.144 114.401 212.016 113.825 211.76C113.249 211.493 112.791 211.136 112.449 210.688C112.119 210.24 111.937 209.744 111.905 209.2H114.161C114.204 209.541 114.369 209.824 114.657 210.048C114.956 210.272 115.324 210.384 115.761 210.384C116.188 210.384 116.519 210.299 116.753 210.128C116.999 209.957 117.121 209.739 117.121 209.472C117.121 209.184 116.972 208.971 116.673 208.832C116.385 208.683 115.921 208.523 115.281 208.352C114.62 208.192 114.076 208.027 113.649 207.856C113.233 207.685 112.871 207.424 112.561 207.072C112.263 206.72 112.113 206.245 112.113 205.648C112.113 205.157 112.252 204.709 112.529 204.304C112.817 203.899 113.223 203.579 113.745 203.344C114.279 203.109 114.903 202.992 115.617 202.992C116.673 202.992 117.516 203.259 118.145 203.792C118.775 204.315 119.121 205.024 119.185 205.92H117.041C117.009 205.568 116.86 205.291 116.593 205.088C116.337 204.875 115.991 204.768 115.553 204.768C115.148 204.768 114.833 204.843 114.609 204.992C114.396 205.141 114.289 205.349 114.289 205.616C114.289 205.915 114.439 206.144 114.737 206.304C115.036 206.453 115.5 206.608 116.129 206.768C116.769 206.928 117.297 207.093 117.713 207.264C118.129 207.435 118.487 207.701 118.785 208.064C119.095 208.416 119.255 208.885 119.265 209.472C119.265 209.984 119.121 210.443 118.833 210.848C118.556 211.253 118.151 211.573 117.617 211.808C117.095 212.032 116.481 212.144 115.777 212.144Z" fill="black"/>
<rect x="19" y="223" width="137" height="28" rx="14" fill="#182B40"/>
<path d="M29.516 236.812C29.516 235.996 29.7 235.264 30.068 234.616C30.436 233.96 30.936 233.448 31.568 233.08C32.208 232.712 32.916 232.528 33.692 232.528C34.604 232.528 35.4 232.748 36.08 233.188C36.76 233.628 37.256 234.252 37.568 235.06H36.26C36.028 234.556 35.692 234.168 35.252 233.896C34.82 233.624 34.3 233.488 33.692 233.488C33.108 233.488 32.584 233.624 32.12 233.896C31.656 234.168 31.292 234.556 31.028 235.06C30.764 235.556 30.632 236.14 30.632 236.812C30.632 237.476 30.764 238.06 31.028 238.564C31.292 239.06 31.656 239.444 32.12 239.716C32.584 239.988 33.108 240.124 33.692 240.124C34.3 240.124 34.82 239.992 35.252 239.728C35.692 239.456 36.028 239.068 36.26 238.564H37.568C37.256 239.364 36.76 239.984 36.08 240.424C35.4 240.856 34.604 241.072 33.692 241.072C32.916 241.072 32.208 240.892 31.568 240.532C30.936 240.164 30.436 239.656 30.068 239.008C29.7 238.36 29.516 237.628 29.516 236.812ZM42.0615 241.108C41.4455 241.108 40.8855 240.968 40.3815 240.688C39.8855 240.408 39.4935 240.012 39.2055 239.5C38.9255 238.98 38.7855 238.38 38.7855 237.7C38.7855 237.028 38.9295 236.436 39.2175 235.924C39.5135 235.404 39.9135 235.008 40.4175 234.736C40.9215 234.456 41.4855 234.316 42.1095 234.316C42.7335 234.316 43.2975 234.456 43.8015 234.736C44.3055 235.008 44.7015 235.4 44.9895 235.912C45.2855 236.424 45.4335 237.02 45.4335 237.7C45.4335 238.38 45.2815 238.98 44.9775 239.5C44.6815 240.012 44.2775 240.408 43.7655 240.688C43.2535 240.968 42.6855 241.108 42.0615 241.108ZM42.0615 240.148C42.4535 240.148 42.8215 240.056 43.1655 239.872C43.5095 239.688 43.7855 239.412 43.9935 239.044C44.2095 238.676 44.3175 238.228 44.3175 237.7C44.3175 237.172 44.2135 236.724 44.0055 236.356C43.7975 235.988 43.5255 235.716 43.1895 235.54C42.8535 235.356 42.4895 235.264 42.0975 235.264C41.6975 235.264 41.3295 235.356 40.9935 235.54C40.6655 235.716 40.4015 235.988 40.2015 236.356C40.0015 236.724 39.9015 237.172 39.9015 237.7C39.9015 238.236 39.9975 238.688 40.1895 239.056C40.3895 239.424 40.6535 239.7 40.9815 239.884C41.3095 240.06 41.6695 240.148 42.0615 240.148ZM50.0733 234.304C50.8733 234.304 51.5213 234.548 52.0173 235.036C52.5133 235.516 52.7613 236.212 52.7613 237.124V241H51.6813V237.28C51.6813 236.624 51.5173 236.124 51.1893 235.78C50.8613 235.428 50.4133 235.252 49.8453 235.252C49.2693 235.252 48.8093 235.432 48.4653 235.792C48.1293 236.152 47.9613 236.676 47.9613 237.364V241H46.8693V234.424H47.9613V235.36C48.1773 235.024 48.4693 234.764 48.8373 234.58C49.2133 234.396 49.6253 234.304 50.0733 234.304ZM55.8771 235.324V239.2C55.8771 239.52 55.9451 239.748 56.0811 239.884C56.2171 240.012 56.4531 240.076 56.7891 240.076H57.5931V241H56.6091C56.0011 241 55.5451 240.86 55.2411 240.58C54.9371 240.3 54.7851 239.84 54.7851 239.2V235.324H53.9331V234.424H54.7851V232.768H55.8771V234.424H57.5931V235.324H55.8771ZM60.0082 235.492C60.2002 235.116 60.4722 234.824 60.8242 234.616C61.1842 234.408 61.6202 234.304 62.1322 234.304V235.432H61.8442C60.6202 235.432 60.0082 236.096 60.0082 237.424V241H58.9162V234.424H60.0082V235.492ZM66.2608 241.108C65.6448 241.108 65.0848 240.968 64.5808 240.688C64.0848 240.408 63.6928 240.012 63.4048 239.5C63.1248 238.98 62.9848 238.38 62.9848 237.7C62.9848 237.028 63.1288 236.436 63.4168 235.924C63.7128 235.404 64.1128 235.008 64.6168 234.736C65.1208 234.456 65.6848 234.316 66.3088 234.316C66.9328 234.316 67.4968 234.456 68.0008 234.736C68.5048 235.008 68.9008 235.4 69.1888 235.912C69.4848 236.424 69.6328 237.02 69.6328 237.7C69.6328 238.38 69.4808 238.98 69.1768 239.5C68.8808 240.012 68.4768 240.408 67.9648 240.688C67.4528 240.968 66.8848 241.108 66.2608 241.108ZM66.2608 240.148C66.6528 240.148 67.0208 240.056 67.3648 239.872C67.7088 239.688 67.9848 239.412 68.1928 239.044C68.4088 238.676 68.5168 238.228 68.5168 237.7C68.5168 237.172 68.4128 236.724 68.2048 236.356C67.9968 235.988 67.7248 235.716 67.3888 235.54C67.0528 235.356 66.6888 235.264 66.2968 235.264C65.8968 235.264 65.5288 235.356 65.1928 235.54C64.8648 235.716 64.6008 235.988 64.4008 236.356C64.2008 236.724 64.1008 237.172 64.1008 237.7C64.1008 238.236 64.1968 238.688 64.3888 239.056C64.5888 239.424 64.8528 239.7 65.1808 239.884C65.5088 240.06 65.8688 240.148 66.2608 240.148ZM72.1605 232.12V241H71.0685V232.12H72.1605ZM80.0217 237.46C80.0217 237.668 80.0097 237.888 79.9857 238.12H74.7297C74.7697 238.768 74.9897 239.276 75.3897 239.644C75.7977 240.004 76.2897 240.184 76.8657 240.184C77.3377 240.184 77.7297 240.076 78.0417 239.86C78.3617 239.636 78.5857 239.34 78.7137 238.972H79.8897C79.7137 239.604 79.3617 240.12 78.8337 240.52C78.3057 240.912 77.6497 241.108 76.8657 241.108C76.2417 241.108 75.6817 240.968 75.1857 240.688C74.6977 240.408 74.3137 240.012 74.0337 239.5C73.7537 238.98 73.6137 238.38 73.6137 237.7C73.6137 237.02 73.7497 236.424 74.0217 235.912C74.2937 235.4 74.6737 235.008 75.1617 234.736C75.6577 234.456 76.2257 234.316 76.8657 234.316C77.4897 234.316 78.0417 234.452 78.5217 234.724C79.0017 234.996 79.3697 235.372 79.6257 235.852C79.8897 236.324 80.0217 236.86 80.0217 237.46ZM78.8937 237.232C78.8937 236.816 78.8017 236.46 78.6177 236.164C78.4337 235.86 78.1817 235.632 77.8617 235.48C77.5497 235.32 77.2017 235.24 76.8177 235.24C76.2657 235.24 75.7937 235.416 75.4017 235.768C75.0177 236.12 74.7977 236.608 74.7417 237.232H78.8937ZM89.6063 239.14H85.9583L85.2863 241H84.1343L87.1583 232.684H88.4183L91.4303 241H90.2783L89.6063 239.14ZM89.2943 238.252L87.7823 234.028L86.2703 238.252H89.2943ZM100.656 234.304C101.168 234.304 101.624 234.412 102.024 234.628C102.424 234.836 102.74 235.152 102.972 235.576C103.204 236 103.32 236.516 103.32 237.124V241H102.24V237.28C102.24 236.624 102.076 236.124 101.748 235.78C101.428 235.428 100.992 235.252 100.44 235.252C99.8722 235.252 99.4202 235.436 99.0842 235.804C98.7482 236.164 98.5802 236.688 98.5802 237.376V241H97.5002V237.28C97.5002 236.624 97.3362 236.124 97.0082 235.78C96.6882 235.428 96.2522 235.252 95.7002 235.252C95.1322 235.252 94.6802 235.436 94.3442 235.804C94.0082 236.164 93.8402 236.688 93.8402 237.376V241H92.7482V234.424H93.8402V235.372C94.0562 235.028 94.3442 234.764 94.7042 234.58C95.0722 234.396 95.4762 234.304 95.9162 234.304C96.4682 234.304 96.9562 234.428 97.3802 234.676C97.8042 234.924 98.1202 235.288 98.3282 235.768C98.5122 235.304 98.8162 234.944 99.2402 234.688C99.6642 234.432 100.136 234.304 100.656 234.304ZM106.204 235.648C106.428 235.256 106.756 234.936 107.188 234.688C107.62 234.44 108.112 234.316 108.664 234.316C109.256 234.316 109.788 234.456 110.26 234.736C110.732 235.016 111.104 235.412 111.376 235.924C111.648 236.428 111.784 237.016 111.784 237.688C111.784 238.352 111.648 238.944 111.376 239.464C111.104 239.984 110.727 240.388 110.247 240.676C109.776 240.964 109.248 241.108 108.664 241.108C108.096 241.108 107.596 240.984 107.164 240.736C106.74 240.488 106.42 240.172 106.204 239.788V241H105.112V232.12H106.204V235.648ZM110.668 237.688C110.668 237.192 110.568 236.76 110.368 236.392C110.168 236.024 109.896 235.744 109.552 235.552C109.216 235.36 108.844 235.264 108.436 235.264C108.036 235.264 107.664 235.364 107.32 235.564C106.984 235.756 106.712 236.04 106.504 236.416C106.304 236.784 106.204 237.212 106.204 237.7C106.204 238.196 106.304 238.632 106.504 239.008C106.712 239.376 106.984 239.66 107.32 239.86C107.664 240.052 108.036 240.148 108.436 240.148C108.844 240.148 109.216 240.052 109.552 239.86C109.896 239.66 110.168 239.376 110.368 239.008C110.568 238.632 110.668 238.192 110.668 237.688ZM113.785 233.356C113.577 233.356 113.401 233.284 113.257 233.14C113.113 232.996 113.041 232.82 113.041 232.612C113.041 232.404 113.113 232.228 113.257 232.084C113.401 231.94 113.577 231.868 113.785 231.868C113.985 231.868 114.153 231.94 114.289 232.084C114.433 232.228 114.505 232.404 114.505 232.612C114.505 232.82 114.433 232.996 114.289 233.14C114.153 233.284 113.985 233.356 113.785 233.356ZM114.313 234.424V241H113.221V234.424H114.313ZM122.174 237.46C122.174 237.668 122.162 237.888 122.138 238.12H116.882C116.922 238.768 117.142 239.276 117.542 239.644C117.95 240.004 118.442 240.184 119.018 240.184C119.49 240.184 119.882 240.076 120.194 239.86C120.514 239.636 120.738 239.34 120.866 238.972H122.042C121.866 239.604 121.514 240.12 120.986 240.52C120.458 240.912 119.802 241.108 119.018 241.108C118.394 241.108 117.834 240.968 117.338 240.688C116.85 240.408 116.466 240.012 116.186 239.5C115.906 238.98 115.766 238.38 115.766 237.7C115.766 237.02 115.902 236.424 116.174 235.912C116.446 235.4 116.826 235.008 117.314 234.736C117.81 234.456 118.378 234.316 119.018 234.316C119.642 234.316 120.194 234.452 120.674 234.724C121.154 234.996 121.522 235.372 121.778 235.852C122.042 236.324 122.174 236.86 122.174 237.46ZM121.046 237.232C121.046 236.816 120.954 236.46 120.77 236.164C120.586 235.86 120.334 235.632 120.014 235.48C119.702 235.32 119.354 235.24 118.97 235.24C118.418 235.24 117.946 235.416 117.554 235.768C117.17 236.12 116.95 236.608 116.894 237.232H121.046ZM126.819 234.304C127.619 234.304 128.267 234.548 128.763 235.036C129.259 235.516 129.507 236.212 129.507 237.124V241H128.427V237.28C128.427 236.624 128.263 236.124 127.935 235.78C127.607 235.428 127.159 235.252 126.591 235.252C126.015 235.252 125.555 235.432 125.211 235.792C124.875 236.152 124.707 236.676 124.707 237.364V241H123.615V234.424H124.707V235.36C124.923 235.024 125.215 234.764 125.583 234.58C125.959 234.396 126.371 234.304 126.819 234.304ZM132.623 235.324V239.2C132.623 239.52 132.691 239.748 132.827 239.884C132.963 240.012 133.199 240.076 133.535 240.076H134.339V241H133.355C132.747 241 132.291 240.86 131.987 240.58C131.683 240.3 131.531 239.84 131.531 239.2V235.324H130.679V234.424H131.531V232.768H132.623V234.424H134.339V235.324H132.623ZM135.254 237.688C135.254 237.016 135.39 236.428 135.662 235.924C135.934 235.412 136.306 235.016 136.778 234.736C137.258 234.456 137.79 234.316 138.374 234.316C138.95 234.316 139.45 234.44 139.874 234.688C140.298 234.936 140.614 235.248 140.822 235.624V234.424H141.926V241H140.822V239.776C140.606 240.16 140.282 240.48 139.85 240.736C139.426 240.984 138.93 241.108 138.362 241.108C137.778 241.108 137.25 240.964 136.778 240.676C136.306 240.388 135.934 239.984 135.662 239.464C135.39 238.944 135.254 238.352 135.254 237.688ZM140.822 237.7C140.822 237.204 140.722 236.772 140.522 236.404C140.322 236.036 140.05 235.756 139.706 235.564C139.37 235.364 138.998 235.264 138.59 235.264C138.182 235.264 137.81 235.36 137.474 235.552C137.138 235.744 136.87 236.024 136.67 236.392C136.47 236.76 136.37 237.192 136.37 237.688C136.37 238.192 136.47 238.632 136.67 239.008C136.87 239.376 137.138 239.66 137.474 239.86C137.81 240.052 138.182 240.148 138.59 240.148C138.998 240.148 139.37 240.052 139.706 239.86C140.05 239.66 140.322 239.376 140.522 239.008C140.722 238.632 140.822 238.196 140.822 237.7ZM144.864 232.12V241H143.772V232.12H144.864Z" fill="white"/>
<rect x="161" y="223" width="129" height="28" rx="14" fill="#4FAF54"/>
<path d="M177.072 232.636V233.524H174.792V241H173.7V233.524H171.408V232.636H177.072ZM184.416 237.46C184.416 237.668 184.404 237.888 184.38 238.12H179.124C179.164 238.768 179.384 239.276 179.784 239.644C180.192 240.004 180.684 240.184 181.26 240.184C181.732 240.184 182.124 240.076 182.436 239.86C182.756 239.636 182.98 239.34 183.108 238.972H184.284C184.108 239.604 183.756 240.12 183.228 240.52C182.7 240.912 182.044 241.108 181.26 241.108C180.636 241.108 180.076 240.968 179.58 240.688C179.092 240.408 178.708 240.012 178.428 239.5C178.148 238.98 178.008 238.38 178.008 237.7C178.008 237.02 178.144 236.424 178.416 235.912C178.688 235.4 179.068 235.008 179.556 234.736C180.052 234.456 180.62 234.316 181.26 234.316C181.884 234.316 182.436 234.452 182.916 234.724C183.396 234.996 183.764 235.372 184.02 235.852C184.284 236.324 184.416 236.86 184.416 237.46ZM183.288 237.232C183.288 236.816 183.196 236.46 183.012 236.164C182.828 235.86 182.576 235.632 182.256 235.48C181.944 235.32 181.596 235.24 181.212 235.24C180.66 235.24 180.188 235.416 179.796 235.768C179.412 236.12 179.192 236.608 179.136 237.232H183.288ZM182.388 232.564L179.832 233.932V233.116L182.388 231.616V232.564ZM185.45 237.7C185.45 237.02 185.586 236.428 185.858 235.924C186.13 235.412 186.506 235.016 186.986 234.736C187.474 234.456 188.03 234.316 188.654 234.316C189.462 234.316 190.126 234.512 190.646 234.904C191.174 235.296 191.522 235.84 191.69 236.536H190.514C190.402 236.136 190.182 235.82 189.854 235.588C189.534 235.356 189.134 235.24 188.654 235.24C188.03 235.24 187.526 235.456 187.142 235.888C186.758 236.312 186.566 236.916 186.566 237.7C186.566 238.492 186.758 239.104 187.142 239.536C187.526 239.968 188.03 240.184 188.654 240.184C189.134 240.184 189.534 240.072 189.854 239.848C190.174 239.624 190.394 239.304 190.514 238.888H191.69C191.514 239.56 191.162 240.1 190.634 240.508C190.106 240.908 189.446 241.108 188.654 241.108C188.03 241.108 187.474 240.968 186.986 240.688C186.506 240.408 186.13 240.012 185.858 239.5C185.586 238.988 185.45 238.388 185.45 237.7ZM196.351 234.304C197.151 234.304 197.799 234.548 198.295 235.036C198.791 235.516 199.039 236.212 199.039 237.124V241H197.959V237.28C197.959 236.624 197.795 236.124 197.467 235.78C197.139 235.428 196.691 235.252 196.123 235.252C195.547 235.252 195.087 235.432 194.743 235.792C194.407 236.152 194.239 236.676 194.239 237.364V241H193.147V234.424H194.239V235.36C194.455 235.024 194.747 234.764 195.115 234.58C195.491 234.396 195.903 234.304 196.351 234.304ZM201.386 233.356C201.178 233.356 201.002 233.284 200.858 233.14C200.714 232.996 200.642 232.82 200.642 232.612C200.642 232.404 200.714 232.228 200.858 232.084C201.002 231.94 201.178 231.868 201.386 231.868C201.586 231.868 201.754 231.94 201.89 232.084C202.034 232.228 202.106 232.404 202.106 232.612C202.106 232.82 202.034 232.996 201.89 233.14C201.754 233.284 201.586 233.356 201.386 233.356ZM201.914 234.424V241H200.822V234.424H201.914ZM203.368 237.7C203.368 237.02 203.504 236.428 203.776 235.924C204.048 235.412 204.424 235.016 204.904 234.736C205.392 234.456 205.948 234.316 206.572 234.316C207.38 234.316 208.044 234.512 208.564 234.904C209.092 235.296 209.44 235.84 209.608 236.536H208.432C208.32 236.136 208.1 235.82 207.772 235.588C207.452 235.356 207.052 235.24 206.572 235.24C205.948 235.24 205.444 235.456 205.06 235.888C204.676 236.312 204.484 236.916 204.484 237.7C204.484 238.492 204.676 239.104 205.06 239.536C205.444 239.968 205.948 240.184 206.572 240.184C207.052 240.184 207.452 240.072 207.772 239.848C208.092 239.624 208.312 239.304 208.432 238.888H209.608C209.432 239.56 209.08 240.1 208.552 240.508C208.024 240.908 207.364 241.108 206.572 241.108C205.948 241.108 205.392 240.968 204.904 240.688C204.424 240.408 204.048 240.012 203.776 239.5C203.504 238.988 203.368 238.388 203.368 237.7ZM213.933 241.108C213.317 241.108 212.757 240.968 212.253 240.688C211.757 240.408 211.365 240.012 211.077 239.5C210.797 238.98 210.657 238.38 210.657 237.7C210.657 237.028 210.801 236.436 211.089 235.924C211.385 235.404 211.785 235.008 212.289 234.736C212.793 234.456 213.357 234.316 213.981 234.316C214.605 234.316 215.169 234.456 215.673 234.736C216.177 235.008 216.573 235.4 216.861 235.912C217.157 236.424 217.305 237.02 217.305 237.7C217.305 238.38 217.153 238.98 216.849 239.5C216.553 240.012 216.149 240.408 215.637 240.688C215.125 240.968 214.557 241.108 213.933 241.108ZM213.933 240.148C214.325 240.148 214.693 240.056 215.037 239.872C215.381 239.688 215.657 239.412 215.865 239.044C216.081 238.676 216.189 238.228 216.189 237.7C216.189 237.172 216.085 236.724 215.877 236.356C215.669 235.988 215.397 235.716 215.061 235.54C214.725 235.356 214.361 235.264 213.969 235.264C213.569 235.264 213.201 235.356 212.865 235.54C212.537 235.716 212.273 235.988 212.073 236.356C211.873 236.724 211.773 237.172 211.773 237.7C211.773 238.236 211.869 238.688 212.061 239.056C212.261 239.424 212.525 239.7 212.853 239.884C213.181 240.06 213.541 240.148 213.933 240.148ZM223.032 232.636V241H221.94V232.636H223.032ZM228.097 234.304C228.897 234.304 229.545 234.548 230.041 235.036C230.537 235.516 230.785 236.212 230.785 237.124V241H229.705V237.28C229.705 236.624 229.541 236.124 229.213 235.78C228.885 235.428 228.437 235.252 227.869 235.252C227.293 235.252 226.833 235.432 226.489 235.792C226.153 236.152 225.985 236.676 225.985 237.364V241H224.893V234.424H225.985V235.36C226.201 235.024 226.493 234.764 226.861 234.58C227.237 234.396 227.649 234.304 228.097 234.304ZM233.901 235.324V239.2C233.901 239.52 233.969 239.748 234.105 239.884C234.241 240.012 234.477 240.076 234.813 240.076H235.617V241H234.633C234.025 241 233.569 240.86 233.265 240.58C232.961 240.3 232.809 239.84 232.809 239.2V235.324H231.957V234.424H232.809V232.768H233.901V234.424H235.617V235.324H233.901ZM242.94 237.46C242.94 237.668 242.928 237.888 242.904 238.12H237.648C237.688 238.768 237.908 239.276 238.308 239.644C238.716 240.004 239.208 240.184 239.784 240.184C240.256 240.184 240.648 240.076 240.96 239.86C241.28 239.636 241.504 239.34 241.632 238.972H242.808C242.632 239.604 242.28 240.12 241.752 240.52C241.224 240.912 240.568 241.108 239.784 241.108C239.16 241.108 238.6 240.968 238.104 240.688C237.616 240.408 237.232 240.012 236.952 239.5C236.672 238.98 236.532 238.38 236.532 237.7C236.532 237.02 236.668 236.424 236.94 235.912C237.212 235.4 237.592 235.008 238.08 234.736C238.576 234.456 239.144 234.316 239.784 234.316C240.408 234.316 240.96 234.452 241.44 234.724C241.92 234.996 242.288 235.372 242.544 235.852C242.808 236.324 242.94 236.86 242.94 237.46ZM241.812 237.232C241.812 236.816 241.72 236.46 241.536 236.164C241.352 235.86 241.1 235.632 240.78 235.48C240.468 235.32 240.12 235.24 239.736 235.24C239.184 235.24 238.712 235.416 238.32 235.768C237.936 236.12 237.716 236.608 237.66 237.232H241.812ZM247.093 234.316C247.661 234.316 248.157 234.44 248.581 234.688C249.013 234.936 249.333 235.248 249.541 235.624V234.424H250.645V241.144C250.645 241.744 250.517 242.276 250.261 242.74C250.005 243.212 249.637 243.58 249.157 243.844C248.685 244.108 248.133 244.24 247.501 244.24C246.637 244.24 245.917 244.036 245.341 243.628C244.765 243.22 244.425 242.664 244.321 241.96H245.401C245.521 242.36 245.769 242.68 246.145 242.92C246.521 243.168 246.973 243.292 247.501 243.292C248.101 243.292 248.589 243.104 248.965 242.728C249.349 242.352 249.541 241.824 249.541 241.144V239.764C249.325 240.148 249.005 240.468 248.581 240.724C248.157 240.98 247.661 241.108 247.093 241.108C246.509 241.108 245.977 240.964 245.497 240.676C245.025 240.388 244.653 239.984 244.381 239.464C244.109 238.944 243.973 238.352 243.973 237.688C243.973 237.016 244.109 236.428 244.381 235.924C244.653 235.412 245.025 235.016 245.497 234.736C245.977 234.456 246.509 234.316 247.093 234.316ZM249.541 237.7C249.541 237.204 249.441 236.772 249.241 236.404C249.041 236.036 248.769 235.756 248.425 235.564C248.089 235.364 247.717 235.264 247.309 235.264C246.901 235.264 246.529 235.36 246.193 235.552C245.857 235.744 245.589 236.024 245.389 236.392C245.189 236.76 245.089 237.192 245.089 237.688C245.089 238.192 245.189 238.632 245.389 239.008C245.589 239.376 245.857 239.66 246.193 239.86C246.529 240.052 246.901 240.148 247.309 240.148C247.717 240.148 248.089 240.052 248.425 239.86C248.769 239.66 249.041 239.376 249.241 239.008C249.441 238.632 249.541 238.196 249.541 237.7ZM253.582 235.492C253.774 235.116 254.046 234.824 254.398 234.616C254.758 234.408 255.194 234.304 255.706 234.304V235.432H255.418C254.194 235.432 253.582 236.096 253.582 237.424V241H252.49V234.424H253.582V235.492ZM256.559 237.688C256.559 237.016 256.695 236.428 256.967 235.924C257.239 235.412 257.611 235.016 258.083 234.736C258.563 234.456 259.095 234.316 259.679 234.316C260.255 234.316 260.755 234.44 261.179 234.688C261.603 234.936 261.919 235.248 262.127 235.624V234.424H263.231V241H262.127V239.776C261.911 240.16 261.587 240.48 261.155 240.736C260.731 240.984 260.235 241.108 259.667 241.108C259.083 241.108 258.555 240.964 258.083 240.676C257.611 240.388 257.239 239.984 256.967 239.464C256.695 238.944 256.559 238.352 256.559 237.688ZM262.127 237.7C262.127 237.204 262.027 236.772 261.827 236.404C261.627 236.036 261.355 235.756 261.011 235.564C260.675 235.364 260.303 235.264 259.895 235.264C259.487 235.264 259.115 235.36 258.779 235.552C258.443 235.744 258.175 236.024 257.975 236.392C257.775 236.76 257.675 237.192 257.675 237.688C257.675 238.192 257.775 238.632 257.975 239.008C258.175 239.376 258.443 239.66 258.779 239.86C259.115 240.052 259.487 240.148 259.895 240.148C260.303 240.148 260.675 240.052 261.011 239.86C261.355 239.66 261.627 239.376 261.827 239.008C262.027 238.632 262.127 238.196 262.127 237.7ZM264.668 237.688C264.668 237.016 264.804 236.428 265.076 235.924C265.348 235.412 265.72 235.016 266.192 234.736C266.672 234.456 267.208 234.316 267.8 234.316C268.312 234.316 268.788 234.436 269.228 234.676C269.668 234.908 270.004 235.216 270.236 235.6V232.12H271.34V241H270.236V239.764C270.02 240.156 269.7 240.48 269.276 240.736C268.852 240.984 268.356 241.108 267.788 241.108C267.204 241.108 266.672 240.964 266.192 240.676C265.72 240.388 265.348 239.984 265.076 239.464C264.804 238.944 264.668 238.352 264.668 237.688ZM270.236 237.7C270.236 237.204 270.136 236.772 269.936 236.404C269.736 236.036 269.464 235.756 269.12 235.564C268.784 235.364 268.412 235.264 268.004 235.264C267.596 235.264 267.224 235.36 266.888 235.552C266.552 235.744 266.284 236.024 266.084 236.392C265.884 236.76 265.784 237.192 265.784 237.688C265.784 238.192 265.884 238.632 266.084 239.008C266.284 239.376 266.552 239.66 266.888 239.86C267.224 240.052 267.596 240.148 268.004 240.148C268.412 240.148 268.784 240.052 269.12 239.86C269.464 239.66 269.736 239.376 269.936 239.008C270.136 238.632 270.236 238.196 270.236 237.7ZM276.054 241.108C275.438 241.108 274.878 240.968 274.374 240.688C273.878 240.408 273.486 240.012 273.198 239.5C272.918 238.98 272.778 238.38 272.778 237.7C272.778 237.028 272.922 236.436 273.21 235.924C273.506 235.404 273.906 235.008 274.41 234.736C274.914 234.456 275.478 234.316 276.102 234.316C276.726 234.316 277.29 234.456 277.794 234.736C278.298 235.008 278.694 235.4 278.982 235.912C279.278 236.424 279.426 237.02 279.426 237.7C279.426 238.38 279.274 238.98 278.97 239.5C278.674 240.012 278.27 240.408 277.758 240.688C277.246 240.968 276.678 241.108 276.054 241.108ZM276.054 240.148C276.446 240.148 276.814 240.056 277.158 239.872C277.502 239.688 277.778 239.412 277.986 239.044C278.202 238.676 278.31 238.228 278.31 237.7C278.31 237.172 278.206 236.724 277.998 236.356C277.79 235.988 277.518 235.716 277.182 235.54C276.846 235.356 276.482 235.264 276.09 235.264C275.69 235.264 275.322 235.356 274.986 235.54C274.658 235.716 274.394 235.988 274.194 236.356C273.994 236.724 273.894 237.172 273.894 237.7C273.894 238.236 273.99 238.688 274.182 239.056C274.382 239.424 274.646 239.7 274.974 239.884C275.302 240.06 275.662 240.148 276.054 240.148Z" fill="white"/>
<rect x="19" y="256" width="58" height="28" rx="14" fill="#404040"/>
<path d="M29.612 273.124C30.628 272.308 31.424 271.64 32 271.12C32.576 270.592 33.06 270.044 33.452 269.476C33.852 268.9 34.052 268.336 34.052 267.784C34.052 267.264 33.924 266.856 33.668 266.56C33.42 266.256 33.016 266.104 32.456 266.104C31.912 266.104 31.488 266.276 31.184 266.62C30.888 266.956 30.728 267.408 30.704 267.976H29.648C29.68 267.08 29.952 266.388 30.464 265.9C30.976 265.412 31.636 265.168 32.444 265.168C33.268 265.168 33.92 265.396 34.4 265.852C34.888 266.308 35.132 266.936 35.132 267.736C35.132 268.4 34.932 269.048 34.532 269.68C34.14 270.304 33.692 270.856 33.188 271.336C32.684 271.808 32.04 272.36 31.256 272.992H35.384V273.904H29.612V273.124ZM36.6463 269.572C36.6463 268.196 36.8703 267.124 37.3183 266.356C37.7663 265.58 38.5503 265.192 39.6703 265.192C40.7823 265.192 41.5623 265.58 42.0103 266.356C42.4583 267.124 42.6823 268.196 42.6823 269.572C42.6823 270.972 42.4583 272.06 42.0103 272.836C41.5623 273.612 40.7823 274 39.6703 274C38.5503 274 37.7663 273.612 37.3183 272.836C36.8703 272.06 36.6463 270.972 36.6463 269.572ZM41.6023 269.572C41.6023 268.876 41.5543 268.288 41.4583 267.808C41.3703 267.32 41.1823 266.928 40.8943 266.632C40.6143 266.336 40.2063 266.188 39.6703 266.188C39.1263 266.188 38.7103 266.336 38.4223 266.632C38.1423 266.928 37.9543 267.32 37.8583 267.808C37.7703 268.288 37.7263 268.876 37.7263 269.572C37.7263 270.292 37.7703 270.896 37.8583 271.384C37.9543 271.872 38.1423 272.264 38.4223 272.56C38.7103 272.856 39.1263 273.004 39.6703 273.004C40.2063 273.004 40.6143 272.856 40.8943 272.56C41.1823 272.264 41.3703 271.872 41.4583 271.384C41.5543 270.896 41.6023 270.292 41.6023 269.572ZM44.0495 273.124C45.0655 272.308 45.8615 271.64 46.4375 271.12C47.0135 270.592 47.4975 270.044 47.8895 269.476C48.2895 268.9 48.4895 268.336 48.4895 267.784C48.4895 267.264 48.3615 266.856 48.1055 266.56C47.8575 266.256 47.4535 266.104 46.8935 266.104C46.3495 266.104 45.9255 266.276 45.6215 266.62C45.3255 266.956 45.1655 267.408 45.1415 267.976H44.0855C44.1175 267.08 44.3895 266.388 44.9015 265.9C45.4135 265.412 46.0735 265.168 46.8815 265.168C47.7055 265.168 48.3575 265.396 48.8375 265.852C49.3255 266.308 49.5695 266.936 49.5695 267.736C49.5695 268.4 49.3695 269.048 48.9695 269.68C48.5775 270.304 48.1295 270.856 47.6255 271.336C47.1215 271.808 46.4775 272.36 45.6935 272.992H49.8215V273.904H44.0495V273.124ZM50.9518 273.124C51.9678 272.308 52.7638 271.64 53.3398 271.12C53.9158 270.592 54.3998 270.044 54.7918 269.476C55.1918 268.9 55.3918 268.336 55.3918 267.784C55.3918 267.264 55.2638 266.856 55.0078 266.56C54.7598 266.256 54.3558 266.104 53.7958 266.104C53.2518 266.104 52.8278 266.276 52.5238 266.62C52.2278 266.956 52.0678 267.408 52.0438 267.976H50.9878C51.0198 267.08 51.2918 266.388 51.8038 265.9C52.3158 265.412 52.9758 265.168 53.7838 265.168C54.6078 265.168 55.2598 265.396 55.7398 265.852C56.2278 266.308 56.4718 266.936 56.4718 267.736C56.4718 268.4 56.2718 269.048 55.8718 269.68C55.4798 270.304 55.0318 270.856 54.5278 271.336C54.0238 271.808 53.3798 272.36 52.5958 272.992H56.7238V273.904H50.9518V273.124ZM58.5142 274.072C58.3062 274.072 58.1302 274 57.9862 273.856C57.8422 273.712 57.7702 273.536 57.7702 273.328C57.7702 273.12 57.8422 272.944 57.9862 272.8C58.1302 272.656 58.3062 272.584 58.5142 272.584C58.7142 272.584 58.8822 272.656 59.0182 272.8C59.1622 272.944 59.2342 273.12 59.2342 273.328C59.2342 273.536 59.1622 273.712 59.0182 273.856C58.8822 274 58.7142 274.072 58.5142 274.072ZM60.3737 273.124C61.3897 272.308 62.1857 271.64 62.7617 271.12C63.3377 270.592 63.8217 270.044 64.2137 269.476C64.6137 268.9 64.8137 268.336 64.8137 267.784C64.8137 267.264 64.6857 266.856 64.4297 266.56C64.1817 266.256 63.7777 266.104 63.2177 266.104C62.6737 266.104 62.2497 266.276 61.9457 266.62C61.6497 266.956 61.4897 267.408 61.4657 267.976H60.4097C60.4417 267.08 60.7137 266.388 61.2257 265.9C61.7377 265.412 62.3977 265.168 63.2057 265.168C64.0297 265.168 64.6817 265.396 65.1617 265.852C65.6497 266.308 65.8937 266.936 65.8937 267.736C65.8937 268.4 65.6937 269.048 65.2937 269.68C64.9017 270.304 64.4537 270.856 63.9497 271.336C63.4457 271.808 62.8017 272.36 62.0177 272.992H66.1457V273.904H60.3737V273.124Z" fill="white"/>
</g>
<defs>
<filter id="filter0_d_192_714" x="0" y="0" width="328" height="310" filterUnits="userSpaceOnUse" color-interpolation-filters="sRGB">
<feFlood flood-opacity="0" result="BackgroundImageFix"/>
<feColorMatrix in="SourceAlpha" type="matrix" values="0 0 0 0 0 0 0 0 0 0 0 0 0 0 0 0 0 0 127 0" result="hardAlpha"/>
<feOffset dy="2"/>
<feGaussianBlur stdDeviation="2"/>
<feComposite in2="hardAlpha" operator="out"/>
<feColorMatrix type="matrix" values="0 0 0 0 0 0 0 0 0 0 0 0 0 0 0 0 0 0 0.25 0"/>
<feBlend mode="normal" in2="BackgroundImageFix" result="effect1_dropShadow_192_714"/>
<feBlend mode="normal" in="SourceGraphic" in2="effect1_dropShadow_192_714" result="shape"/>
</filter>
</defs>
</svg>
