<svg width="328" height="310" viewBox="0 0 328 310" fill="none" xmlns="http://www.w3.org/2000/svg">
<g filter="url(#filter0_d_192_713)">
<rect x="4" y="2" width="320" height="302" rx="20" fill="white"/>
<path fill-rule="evenodd" clip-rule="evenodd" d="M19 164C19 175.046 27.9543 184 39 184H309L19 22V164Z" fill="#182B40"/>
<path d="M309 22H19L309 184V22Z" fill="#00046B"/>
<path d="M43 41H68V67H48C45.2386 67 43 64.7614 43 62V41Z" fill="white"/>
<path d="M73 41H98V67H78C75.2386 67 73 64.7614 73 62V41Z" fill="white"/>
<path d="M103 41H128V67H108C105.239 67 103 64.7614 103 62V41Z" fill="white"/>
<path d="M133 41H158V67H138C135.239 67 133 64.7614 133 62V41Z" fill="white"/>
<path d="M163 41H188V67H168C165.239 67 163 64.7614 163 62V41Z" fill="white"/>
<path d="M43 72H68V98H48C45.2386 98 43 95.7614 43 93V72Z" fill="white"/>
<path d="M73 72H98V98H78C75.2386 98 73 95.7614 73 93V72Z" fill="white"/>
<path d="M103 72H128V98H108C105.239 98 103 95.7614 103 93V72Z" fill="white"/>
<path d="M133 72H158V98H138C135.239 98 133 95.7614 133 93V72Z" fill="white"/>
<path d="M163 72H188V98H168C165.239 98 163 95.7614 163 93V72Z" fill="white"/>
<path d="M43 103H68V129H48C45.2386 129 43 126.761 43 124V103Z" fill="white"/>
<path d="M73 103H98V129H78C75.2386 129 73 126.761 73 124V103Z" fill="white"/>
<path d="M103 103H128V129H108C105.239 129 103 126.761 103 124V103Z" fill="white"/>
<path d="M133 103H158V129H138C135.239 129 133 126.761 133 124V103Z" fill="white"/>
<path d="M163 103H188V129H168C165.239 129 163 126.761 163 124V103Z" fill="white"/>
<path d="M43 134H68V160H48C45.2386 160 43 157.761 43 155V134Z" fill="white"/>
<path d="M73 134H98V160H78C75.2386 160 73 157.761 73 155V134Z" fill="white"/>
<path d="M103 134H128V160H108C105.239 160 103 157.761 103 155V134Z" fill="white"/>
<path d="M133 134H158V160H138C135.239 160 133 157.761 133 155V134Z" fill="white"/>
<path d="M163 134H188V160H168C165.239 160 163 157.761 163 155V134Z" fill="white"/>
<path d="M208.67 41.7898V42.7273H204.852V41.7898H208.67ZM214.19 41.7898V42.7273H210.372V41.7898H214.19ZM219.71 41.7898V42.7273H215.891V41.7898H219.71ZM225.229 41.7898V42.7273H221.411V41.7898H225.229ZM230.749 41.7898V42.7273H226.93V41.7898H230.749ZM236.268 41.7898V42.7273H232.45V41.7898H236.268ZM241.788 41.7898V42.7273H237.969V41.7898H241.788ZM247.307 41.7898V42.7273H243.489V41.7898H247.307ZM252.827 41.7898V42.7273H249.009V41.7898H252.827ZM258.346 41.7898V42.7273H254.528V41.7898H258.346ZM263.866 41.7898V42.7273H260.048V41.7898H263.866ZM269.385 41.7898V42.7273H265.567V41.7898H269.385Z" fill="white"/>
<path d="M208.67 49.7898V50.7273H204.852V49.7898H208.67ZM214.19 49.7898V50.7273H210.372V49.7898H214.19ZM219.71 49.7898V50.7273H215.891V49.7898H219.71ZM225.229 49.7898V50.7273H221.411V49.7898H225.229ZM230.749 49.7898V50.7273H226.93V49.7898H230.749ZM236.268 49.7898V50.7273H232.45V49.7898H236.268ZM241.788 49.7898V50.7273H237.969V49.7898H241.788ZM247.307 49.7898V50.7273H243.489V49.7898H247.307ZM252.827 49.7898V50.7273H249.009V49.7898H252.827ZM258.346 49.7898V50.7273H254.528V49.7898H258.346ZM263.866 49.7898V50.7273H260.048V49.7898H263.866ZM269.385 49.7898V50.7273H265.567V49.7898H269.385Z" fill="white"/>
<path d="M208.67 59.7898V60.7273H204.852V59.7898H208.67ZM214.19 59.7898V60.7273H210.372V59.7898H214.19ZM219.71 59.7898V60.7273H215.891V59.7898H219.71ZM225.229 59.7898V60.7273H221.411V59.7898H225.229ZM230.749 59.7898V60.7273H226.93V59.7898H230.749ZM236.268 59.7898V60.7273H232.45V59.7898H236.268ZM241.788 59.7898V60.7273H237.969V59.7898H241.788ZM247.307 59.7898V60.7273H243.489V59.7898H247.307ZM252.827 59.7898V60.7273H249.009V59.7898H252.827ZM258.346 59.7898V60.7273H254.528V59.7898H258.346ZM263.866 59.7898V60.7273H260.048V59.7898H263.866ZM269.385 59.7898V60.7273H265.567V59.7898H269.385Z" fill="white"/>
<path d="M208.67 71.7898V72.7273H204.852V71.7898H208.67ZM214.19 71.7898V72.7273H210.372V71.7898H214.19ZM219.71 71.7898V72.7273H215.891V71.7898H219.71ZM225.229 71.7898V72.7273H221.411V71.7898H225.229ZM230.749 71.7898V72.7273H226.93V71.7898H230.749ZM236.268 71.7898V72.7273H232.45V71.7898H236.268ZM241.788 71.7898V72.7273H237.969V71.7898H241.788ZM247.307 71.7898V72.7273H243.489V71.7898H247.307ZM252.827 71.7898V72.7273H249.009V71.7898H252.827ZM258.346 71.7898V72.7273H254.528V71.7898H258.346ZM263.866 71.7898V72.7273H260.048V71.7898H263.866ZM269.385 71.7898V72.7273H265.567V71.7898H269.385Z" fill="white"/>
<path d="M208.67 80.7898V81.7273H204.852V80.7898H208.67ZM214.19 80.7898V81.7273H210.372V80.7898H214.19ZM219.71 80.7898V81.7273H215.891V80.7898H219.71ZM225.229 80.7898V81.7273H221.411V80.7898H225.229ZM230.749 80.7898V81.7273H226.93V80.7898H230.749ZM236.268 80.7898V81.7273H232.45V80.7898H236.268ZM241.788 80.7898V81.7273H237.969V80.7898H241.788ZM247.307 80.7898V81.7273H243.489V80.7898H247.307ZM252.827 80.7898V81.7273H249.009V80.7898H252.827ZM258.346 80.7898V81.7273H254.528V80.7898H258.346ZM263.866 80.7898V81.7273H260.048V80.7898H263.866ZM269.385 80.7898V81.7273H265.567V80.7898H269.385Z" fill="white"/>
<path d="M25.288 212.112C24.2427 212.112 23.2827 211.867 22.408 211.376C21.5333 210.885 20.84 210.208 20.328 209.344C19.816 208.469 19.56 207.483 19.56 206.384C19.56 205.296 19.816 204.32 20.328 203.456C20.84 202.581 21.5333 201.899 22.408 201.408C23.2827 200.917 24.2427 200.672 25.288 200.672C26.344 200.672 27.304 200.917 28.168 201.408C29.0427 201.899 29.7307 202.581 30.232 203.456C30.744 204.32 31 205.296 31 206.384C31 207.483 30.744 208.469 30.232 209.344C29.7307 210.208 29.0427 210.885 28.168 211.376C27.2933 211.867 26.3333 212.112 25.288 212.112ZM25.288 210.112C25.96 210.112 26.552 209.963 27.064 209.664C27.576 209.355 27.976 208.917 28.264 208.352C28.552 207.787 28.696 207.131 28.696 206.384C28.696 205.637 28.552 204.987 28.264 204.432C27.976 203.867 27.576 203.435 27.064 203.136C26.552 202.837 25.96 202.688 25.288 202.688C24.616 202.688 24.0187 202.837 23.496 203.136C22.984 203.435 22.584 203.867 22.296 204.432C22.008 204.987 21.864 205.637 21.864 206.384C21.864 207.131 22.008 207.787 22.296 208.352C22.584 208.917 22.984 209.355 23.496 209.664C24.0187 209.963 24.616 210.112 25.288 210.112ZM36.0585 212.144C35.3332 212.144 34.6825 212.016 34.1065 211.76C33.5305 211.493 33.0718 211.136 32.7305 210.688C32.3998 210.24 32.2185 209.744 32.1865 209.2H34.4425C34.4852 209.541 34.6505 209.824 34.9385 210.048C35.2372 210.272 35.6052 210.384 36.0425 210.384C36.4692 210.384 36.7998 210.299 37.0345 210.128C37.2798 209.957 37.4025 209.739 37.4025 209.472C37.4025 209.184 37.2532 208.971 36.9545 208.832C36.6665 208.683 36.2025 208.523 35.5625 208.352C34.9012 208.192 34.3572 208.027 33.9305 207.856C33.5145 207.685 33.1518 207.424 32.8425 207.072C32.5438 206.72 32.3945 206.245 32.3945 205.648C32.3945 205.157 32.5332 204.709 32.8105 204.304C33.0985 203.899 33.5038 203.579 34.0265 203.344C34.5598 203.109 35.1838 202.992 35.8985 202.992C36.9545 202.992 37.7972 203.259 38.4265 203.792C39.0558 204.315 39.4025 205.024 39.4665 205.92H37.3225C37.2905 205.568 37.1412 205.291 36.8745 205.088C36.6185 204.875 36.2718 204.768 35.8345 204.768C35.4292 204.768 35.1145 204.843 34.8905 204.992C34.6772 205.141 34.5705 205.349 34.5705 205.616C34.5705 205.915 34.7198 206.144 35.0185 206.304C35.3172 206.453 35.7812 206.608 36.4105 206.768C37.0505 206.928 37.5785 207.093 37.9945 207.264C38.4105 207.435 38.7678 207.701 39.0665 208.064C39.3758 208.416 39.5358 208.885 39.5465 209.472C39.5465 209.984 39.4025 210.443 39.1145 210.848C38.8372 211.253 38.4318 211.573 37.8985 211.808C37.3758 212.032 36.7625 212.144 36.0585 212.144ZM47.4378 210.224H51.1178V212H45.1978V200.832H47.4378V210.224ZM60.7815 207.376C60.7815 207.696 60.7602 207.984 60.7175 208.24H54.2375C54.2908 208.88 54.5148 209.381 54.9095 209.744C55.3042 210.107 55.7895 210.288 56.3655 210.288C57.1975 210.288 57.7895 209.931 58.1415 209.216H60.5575C60.3015 210.069 59.8108 210.773 59.0855 211.328C58.3602 211.872 57.4695 212.144 56.4135 212.144C55.5602 212.144 54.7922 211.957 54.1095 211.584C53.4375 211.2 52.9095 210.661 52.5255 209.968C52.1522 209.275 51.9655 208.475 51.9655 207.568C51.9655 206.651 52.1522 205.845 52.5255 205.152C52.8988 204.459 53.4215 203.925 54.0935 203.552C54.7655 203.179 55.5388 202.992 56.4135 202.992C57.2562 202.992 58.0082 203.173 58.6695 203.536C59.3415 203.899 59.8588 204.416 60.2215 205.088C60.5948 205.749 60.7815 206.512 60.7815 207.376ZM58.4615 206.736C58.4508 206.16 58.2428 205.701 57.8375 205.36C57.4322 205.008 56.9362 204.832 56.3495 204.832C55.7948 204.832 55.3255 205.003 54.9415 205.344C54.5682 205.675 54.3388 206.139 54.2535 206.736H58.4615ZM66.3525 212.144C65.4992 212.144 64.7312 211.957 64.0485 211.584C63.3658 211.2 62.8272 210.661 62.4325 209.968C62.0485 209.275 61.8565 208.475 61.8565 207.568C61.8565 206.661 62.0538 205.861 62.4485 205.168C62.8538 204.475 63.4032 203.941 64.0965 203.568C64.7898 203.184 65.5632 202.992 66.4165 202.992C67.2698 202.992 68.0432 203.184 68.7365 203.568C69.4298 203.941 69.9738 204.475 70.3685 205.168C70.7738 205.861 70.9765 206.661 70.9765 207.568C70.9765 208.475 70.7685 209.275 70.3525 209.968C69.9472 210.661 69.3925 211.2 68.6885 211.584C67.9952 211.957 67.2165 212.144 66.3525 212.144ZM66.3525 210.192C66.7578 210.192 67.1365 210.096 67.4885 209.904C67.8512 209.701 68.1392 209.403 68.3525 209.008C68.5658 208.613 68.6725 208.133 68.6725 207.568C68.6725 206.725 68.4485 206.08 68.0005 205.632C67.5632 205.173 67.0245 204.944 66.3845 204.944C65.7445 204.944 65.2058 205.173 64.7685 205.632C64.3418 206.08 64.1285 206.725 64.1285 207.568C64.1285 208.411 64.3365 209.061 64.7525 209.52C65.1792 209.968 65.7125 210.192 66.3525 210.192ZM63.6325 202.176C63.7285 201.472 63.9472 200.949 64.2885 200.608C64.6405 200.256 65.0832 200.08 65.6165 200.08C65.8405 200.08 66.0378 200.117 66.2085 200.192C66.3792 200.256 66.5712 200.352 66.7845 200.48C67.1045 200.683 67.3712 200.784 67.5845 200.784C67.9792 200.784 68.2085 200.555 68.2725 200.096H69.4725C69.3765 200.8 69.1525 201.328 68.8005 201.68C68.4592 202.021 68.0218 202.192 67.4885 202.192C67.2645 202.192 67.0672 202.16 66.8965 202.096C66.7258 202.021 66.5338 201.92 66.3205 201.792C66.0112 201.579 65.7445 201.472 65.5205 201.472C65.1258 201.472 64.8912 201.707 64.8165 202.176H63.6325ZM80.8596 207.376C80.8596 207.696 80.8383 207.984 80.7956 208.24H74.3156C74.369 208.88 74.593 209.381 74.9876 209.744C75.3823 210.107 75.8676 210.288 76.4436 210.288C77.2756 210.288 77.8676 209.931 78.2196 209.216H80.6356C80.3796 210.069 79.889 210.773 79.1636 211.328C78.4383 211.872 77.5476 212.144 76.4916 212.144C75.6383 212.144 74.8703 211.957 74.1876 211.584C73.5156 211.2 72.9876 210.661 72.6036 209.968C72.2303 209.275 72.0436 208.475 72.0436 207.568C72.0436 206.651 72.2303 205.845 72.6036 205.152C72.977 204.459 73.4996 203.925 74.1716 203.552C74.8436 203.179 75.617 202.992 76.4916 202.992C77.3343 202.992 78.0863 203.173 78.7476 203.536C79.4196 203.899 79.937 204.416 80.2996 205.088C80.673 205.749 80.8596 206.512 80.8596 207.376ZM78.5396 206.736C78.529 206.16 78.321 205.701 77.9156 205.36C77.5103 205.008 77.0143 204.832 76.4276 204.832C75.873 204.832 75.4036 205.003 75.0196 205.344C74.6463 205.675 74.417 206.139 74.3316 206.736H78.5396ZM85.8866 212.144C85.1613 212.144 84.5106 212.016 83.9346 211.76C83.3586 211.493 82.9 211.136 82.5586 210.688C82.228 210.24 82.0466 209.744 82.0146 209.2H84.2706C84.3133 209.541 84.4786 209.824 84.7666 210.048C85.0653 210.272 85.4333 210.384 85.8706 210.384C86.2973 210.384 86.628 210.299 86.8626 210.128C87.108 209.957 87.2306 209.739 87.2306 209.472C87.2306 209.184 87.0813 208.971 86.7826 208.832C86.4946 208.683 86.0306 208.523 85.3906 208.352C84.7293 208.192 84.1853 208.027 83.7586 207.856C83.3426 207.685 82.98 207.424 82.6706 207.072C82.372 206.72 82.2226 206.245 82.2226 205.648C82.2226 205.157 82.3613 204.709 82.6386 204.304C82.9266 203.899 83.332 203.579 83.8546 203.344C84.388 203.109 85.012 202.992 85.7266 202.992C86.7826 202.992 87.6253 203.259 88.2546 203.792C88.884 204.315 89.2306 205.024 89.2946 205.92H87.1506C87.1186 205.568 86.9693 205.291 86.7026 205.088C86.4466 204.875 86.1 204.768 85.6626 204.768C85.2573 204.768 84.9426 204.843 84.7186 204.992C84.5053 205.141 84.3986 205.349 84.3986 205.616C84.3986 205.915 84.548 206.144 84.8466 206.304C85.1453 206.453 85.6093 206.608 86.2386 206.768C86.8786 206.928 87.4066 207.093 87.8226 207.264C88.2386 207.435 88.596 207.701 88.8946 208.064C89.204 208.416 89.364 208.885 89.3746 209.472C89.3746 209.984 89.2306 210.443 88.9426 210.848C88.6653 211.253 88.26 211.573 87.7266 211.808C87.204 212.032 86.5906 212.144 85.8866 212.144ZM94.4499 207.536C94.4499 206.64 94.6259 205.845 94.9779 205.152C95.3405 204.459 95.8312 203.925 96.4499 203.552C97.0685 203.179 97.7565 202.992 98.5139 202.992C99.0899 202.992 99.6392 203.12 100.162 203.376C100.685 203.621 101.101 203.952 101.41 204.368V200.16H103.682V212H101.41V210.688C101.133 211.125 100.743 211.477 100.242 211.744C99.7405 212.011 99.1592 212.144 98.4979 212.144C97.7512 212.144 97.0685 211.952 96.4499 211.568C95.8312 211.184 95.3405 210.645 94.9779 209.952C94.6259 209.248 94.4499 208.443 94.4499 207.536ZM101.426 207.568C101.426 207.024 101.319 206.56 101.106 206.176C100.893 205.781 100.605 205.483 100.242 205.28C99.8792 205.067 99.4899 204.96 99.0739 204.96C98.6579 204.96 98.2739 205.061 97.9219 205.264C97.5699 205.467 97.2819 205.765 97.0579 206.16C96.8445 206.544 96.7379 207.003 96.7379 207.536C96.7379 208.069 96.8445 208.539 97.0579 208.944C97.2819 209.339 97.5699 209.643 97.9219 209.856C98.2845 210.069 98.6685 210.176 99.0739 210.176C99.4899 210.176 99.8792 210.075 100.242 209.872C100.605 209.659 100.893 209.36 101.106 208.976C101.319 208.581 101.426 208.112 101.426 207.568ZM114.11 207.376C114.11 207.696 114.088 207.984 114.046 208.24H107.566C107.619 208.88 107.843 209.381 108.238 209.744C108.632 210.107 109.118 210.288 109.694 210.288C110.526 210.288 111.118 209.931 111.47 209.216H113.886C113.63 210.069 113.139 210.773 112.414 211.328C111.688 211.872 110.798 212.144 109.742 212.144C108.888 212.144 108.12 211.957 107.438 211.584C106.766 211.2 106.238 210.661 105.854 209.968C105.48 209.275 105.294 208.475 105.294 207.568C105.294 206.651 105.48 205.845 105.854 205.152C106.227 204.459 106.75 203.925 107.422 203.552C108.094 203.179 108.867 202.992 109.742 202.992C110.584 202.992 111.336 203.173 111.998 203.536C112.67 203.899 113.187 204.416 113.55 205.088C113.923 205.749 114.11 206.512 114.11 207.376ZM111.79 206.736C111.779 206.16 111.571 205.701 111.166 205.36C110.76 205.008 110.264 204.832 109.678 204.832C109.123 204.832 108.654 205.003 108.27 205.344C107.896 205.675 107.667 206.139 107.582 206.736H111.79ZM131.733 200.832V212H129.493V204.736L126.501 212H124.805L121.797 204.736V212H119.557V200.832H122.101L125.653 209.136L129.205 200.832H131.733ZM135.084 202.08C134.689 202.08 134.358 201.957 134.092 201.712C133.836 201.456 133.708 201.141 133.708 200.768C133.708 200.395 133.836 200.085 134.092 199.84C134.358 199.584 134.689 199.456 135.084 199.456C135.478 199.456 135.804 199.584 136.06 199.84C136.326 200.085 136.46 200.395 136.46 200.768C136.46 201.141 136.326 201.456 136.06 201.712C135.804 201.957 135.478 202.08 135.084 202.08ZM136.188 203.136V212H133.948V203.136H136.188ZM143.313 203.008C144.369 203.008 145.222 203.344 145.873 204.016C146.524 204.677 146.849 205.605 146.849 206.8V212H144.609V207.104C144.609 206.4 144.433 205.861 144.081 205.488C143.729 205.104 143.249 204.912 142.641 204.912C142.022 204.912 141.532 205.104 141.169 205.488C140.817 205.861 140.641 206.4 140.641 207.104V212H138.401V203.136H140.641V204.24C140.94 203.856 141.318 203.557 141.777 203.344C142.246 203.12 142.758 203.008 143.313 203.008ZM152.915 212.144C152.062 212.144 151.294 211.957 150.611 211.584C149.928 211.2 149.39 210.661 148.995 209.968C148.611 209.275 148.419 208.475 148.419 207.568C148.419 206.661 148.616 205.861 149.011 205.168C149.416 204.475 149.966 203.941 150.659 203.568C151.352 203.184 152.126 202.992 152.979 202.992C153.832 202.992 154.606 203.184 155.299 203.568C155.992 203.941 156.536 204.475 156.931 205.168C157.336 205.861 157.539 206.661 157.539 207.568C157.539 208.475 157.331 209.275 156.915 209.968C156.51 210.661 155.955 211.2 155.251 211.584C154.558 211.957 153.779 212.144 152.915 212.144ZM152.915 210.192C153.32 210.192 153.699 210.096 154.051 209.904C154.414 209.701 154.702 209.403 154.915 209.008C155.128 208.613 155.235 208.133 155.235 207.568C155.235 206.725 155.011 206.08 154.563 205.632C154.126 205.173 153.587 204.944 152.947 204.944C152.307 204.944 151.768 205.173 151.331 205.632C150.904 206.08 150.691 206.725 150.691 207.568C150.691 208.411 150.899 209.061 151.315 209.52C151.742 209.968 152.275 210.192 152.915 210.192ZM161.422 204.512C161.71 204.043 162.083 203.675 162.542 203.408C163.011 203.141 163.545 203.008 164.142 203.008V205.36H163.55C162.846 205.36 162.313 205.525 161.95 205.856C161.598 206.187 161.422 206.763 161.422 207.584V212H159.182V203.136H161.422V204.512ZM165.075 207.536C165.075 206.64 165.251 205.845 165.603 205.152C165.966 204.459 166.451 203.925 167.059 203.552C167.678 203.179 168.366 202.992 169.123 202.992C169.784 202.992 170.36 203.125 170.851 203.392C171.352 203.659 171.752 203.995 172.051 204.4V203.136H174.307V212H172.051V210.704C171.763 211.12 171.363 211.467 170.851 211.744C170.35 212.011 169.768 212.144 169.107 212.144C168.36 212.144 167.678 211.952 167.059 211.568C166.451 211.184 165.966 210.645 165.603 209.952C165.251 209.248 165.075 208.443 165.075 207.536ZM172.051 207.568C172.051 207.024 171.944 206.56 171.731 206.176C171.518 205.781 171.23 205.483 170.867 205.28C170.504 205.067 170.115 204.96 169.699 204.96C169.283 204.96 168.899 205.061 168.547 205.264C168.195 205.467 167.907 205.765 167.683 206.16C167.47 206.544 167.363 207.003 167.363 207.536C167.363 208.069 167.47 208.539 167.683 208.944C167.907 209.339 168.195 209.643 168.547 209.856C168.91 210.069 169.294 210.176 169.699 210.176C170.115 210.176 170.504 210.075 170.867 209.872C171.23 209.659 171.518 209.36 171.731 208.976C171.944 208.581 172.051 208.112 172.051 207.568Z" fill="black"/>
<rect x="19" y="223" width="172" height="28" rx="14" fill="#182B40"/>
<path d="M31.016 232.636V241H29.924V232.636H31.016ZM36.0811 234.304C36.8811 234.304 37.5291 234.548 38.0251 235.036C38.5211 235.516 38.7691 236.212 38.7691 237.124V241H37.6891V237.28C37.6891 236.624 37.5251 236.124 37.1971 235.78C36.8691 235.428 36.4211 235.252 35.8531 235.252C35.2771 235.252 34.8171 235.432 34.4731 235.792C34.1371 236.152 33.9691 236.676 33.9691 237.364V241H32.8771V234.424H33.9691V235.36C34.1851 235.024 34.4771 234.764 34.8451 234.58C35.2211 234.396 35.6331 234.304 36.0811 234.304ZM43.2289 235.324H41.8489V241H40.7569V235.324H39.9049V234.424H40.7569V233.956C40.7569 233.22 40.9449 232.684 41.3209 232.348C41.7049 232.004 42.3169 231.832 43.1569 231.832V232.744C42.6769 232.744 42.3369 232.84 42.1369 233.032C41.9449 233.216 41.8489 233.524 41.8489 233.956V234.424H43.2289V235.324ZM47.3701 241.108C46.7541 241.108 46.1941 240.968 45.6901 240.688C45.1941 240.408 44.8021 240.012 44.5141 239.5C44.2341 238.98 44.0941 238.38 44.0941 237.7C44.0941 237.028 44.2381 236.436 44.5261 235.924C44.8221 235.404 45.2221 235.008 45.7261 234.736C46.2301 234.456 46.7941 234.316 47.4181 234.316C48.0421 234.316 48.6061 234.456 49.1101 234.736C49.6141 235.008 50.0101 235.4 50.2981 235.912C50.5941 236.424 50.7421 237.02 50.7421 237.7C50.7421 238.38 50.5901 238.98 50.2861 239.5C49.9901 240.012 49.5861 240.408 49.0741 240.688C48.5621 240.968 47.9941 241.108 47.3701 241.108ZM47.3701 240.148C47.7621 240.148 48.1301 240.056 48.4741 239.872C48.8181 239.688 49.0941 239.412 49.3021 239.044C49.5181 238.676 49.6261 238.228 49.6261 237.7C49.6261 237.172 49.5221 236.724 49.3141 236.356C49.1061 235.988 48.8341 235.716 48.4981 235.54C48.1621 235.356 47.7981 235.264 47.4061 235.264C47.0061 235.264 46.6381 235.356 46.3021 235.54C45.9741 235.716 45.7101 235.988 45.5101 236.356C45.3101 236.724 45.2101 237.172 45.2101 237.7C45.2101 238.236 45.3061 238.688 45.4981 239.056C45.6981 239.424 45.9621 239.7 46.2901 239.884C46.6181 240.06 46.9781 240.148 47.3701 240.148ZM53.2699 235.492C53.4619 235.116 53.7339 234.824 54.0859 234.616C54.4459 234.408 54.8819 234.304 55.3939 234.304V235.432H55.1059C53.8819 235.432 53.2699 236.096 53.2699 237.424V241H52.1779V234.424H53.2699V235.492ZM64.5625 234.304C65.0745 234.304 65.5305 234.412 65.9305 234.628C66.3305 234.836 66.6465 235.152 66.8785 235.576C67.1105 236 67.2265 236.516 67.2265 237.124V241H66.1465V237.28C66.1465 236.624 65.9825 236.124 65.6545 235.78C65.3345 235.428 64.8985 235.252 64.3465 235.252C63.7785 235.252 63.3265 235.436 62.9905 235.804C62.6545 236.164 62.4865 236.688 62.4865 237.376V241H61.4065V237.28C61.4065 236.624 61.2425 236.124 60.9145 235.78C60.5945 235.428 60.1585 235.252 59.6065 235.252C59.0385 235.252 58.5865 235.436 58.2505 235.804C57.9145 236.164 57.7465 236.688 57.7465 237.376V241H56.6545V234.424H57.7465V235.372C57.9625 235.028 58.2505 234.764 58.6105 234.58C58.9785 234.396 59.3825 234.304 59.8225 234.304C60.3745 234.304 60.8625 234.428 61.2865 234.676C61.7105 234.924 62.0265 235.288 62.2345 235.768C62.4185 235.304 62.7225 234.944 63.1465 234.688C63.5705 234.432 64.0425 234.304 64.5625 234.304ZM68.6098 237.688C68.6098 237.016 68.7458 236.428 69.0178 235.924C69.2898 235.412 69.6618 235.016 70.1338 234.736C70.6138 234.456 71.1458 234.316 71.7298 234.316C72.3058 234.316 72.8058 234.44 73.2298 234.688C73.6538 234.936 73.9698 235.248 74.1778 235.624V234.424H75.2818V241H74.1778V239.776C73.9618 240.16 73.6378 240.48 73.2058 240.736C72.7818 240.984 72.2858 241.108 71.7178 241.108C71.1338 241.108 70.6058 240.964 70.1338 240.676C69.6618 240.388 69.2898 239.984 69.0178 239.464C68.7458 238.944 68.6098 238.352 68.6098 237.688ZM74.1778 237.7C74.1778 237.204 74.0778 236.772 73.8778 236.404C73.6778 236.036 73.4058 235.756 73.0618 235.564C72.7258 235.364 72.3538 235.264 71.9458 235.264C71.5378 235.264 71.1658 235.36 70.8298 235.552C70.4938 235.744 70.2258 236.024 70.0258 236.392C69.8258 236.76 69.7258 237.192 69.7258 237.688C69.7258 238.192 69.8258 238.632 70.0258 239.008C70.2258 239.376 70.4938 239.66 70.8298 239.86C71.1658 240.052 71.5378 240.148 71.9458 240.148C72.3538 240.148 72.7258 240.052 73.0618 239.86C73.4058 239.66 73.6778 239.376 73.8778 239.008C74.0778 238.632 74.1778 238.196 74.1778 237.7ZM73.3258 232.564L70.7698 233.932V233.116L73.3258 231.616V232.564ZM78.4591 235.324V239.2C78.4591 239.52 78.5271 239.748 78.6631 239.884C78.7991 240.012 79.0351 240.076 79.3711 240.076H80.1751V241H79.1911C78.5831 241 78.1271 240.86 77.8231 240.58C77.5191 240.3 77.3671 239.84 77.3671 239.2V235.324H76.5151V234.424H77.3671V232.768H78.4591V234.424H80.1751V235.324H78.4591ZM82.0622 233.356C81.8542 233.356 81.6782 233.284 81.5342 233.14C81.3902 232.996 81.3182 232.82 81.3182 232.612C81.3182 232.404 81.3902 232.228 81.5342 232.084C81.6782 231.94 81.8542 231.868 82.0622 231.868C82.2622 231.868 82.4302 231.94 82.5662 232.084C82.7102 232.228 82.7822 232.404 82.7822 232.612C82.7822 232.82 82.7102 232.996 82.5662 233.14C82.4302 233.284 82.2622 233.356 82.0622 233.356ZM82.5902 234.424V241H81.4982V234.424H82.5902ZM84.0433 237.7C84.0433 237.02 84.1793 236.428 84.4513 235.924C84.7233 235.412 85.0993 235.016 85.5793 234.736C86.0673 234.456 86.6233 234.316 87.2473 234.316C88.0553 234.316 88.7193 234.512 89.2393 234.904C89.7673 235.296 90.1153 235.84 90.2833 236.536H89.1073C88.9953 236.136 88.7753 235.82 88.4473 235.588C88.1273 235.356 87.7273 235.24 87.2473 235.24C86.6233 235.24 86.1193 235.456 85.7353 235.888C85.3513 236.312 85.1593 236.916 85.1593 237.7C85.1593 238.492 85.3513 239.104 85.7353 239.536C86.1193 239.968 86.6233 240.184 87.2473 240.184C87.7273 240.184 88.1273 240.072 88.4473 239.848C88.7673 239.624 88.9873 239.304 89.1073 238.888H90.2833C90.1073 239.56 89.7553 240.1 89.2273 240.508C88.6993 240.908 88.0393 241.108 87.2473 241.108C86.6233 241.108 86.0673 240.968 85.5793 240.688C85.0993 240.408 84.7233 240.012 84.4513 239.5C84.1793 238.988 84.0433 238.388 84.0433 237.7ZM91.3324 237.688C91.3324 237.016 91.4684 236.428 91.7404 235.924C92.0124 235.412 92.3844 235.016 92.8564 234.736C93.3364 234.456 93.8684 234.316 94.4524 234.316C95.0284 234.316 95.5284 234.44 95.9524 234.688C96.3764 234.936 96.6924 235.248 96.9004 235.624V234.424H98.0044V241H96.9004V239.776C96.6844 240.16 96.3604 240.48 95.9284 240.736C95.5044 240.984 95.0084 241.108 94.4404 241.108C93.8564 241.108 93.3284 240.964 92.8564 240.676C92.3844 240.388 92.0124 239.984 91.7404 239.464C91.4684 238.944 91.3324 238.352 91.3324 237.688ZM96.9004 237.7C96.9004 237.204 96.8004 236.772 96.6004 236.404C96.4004 236.036 96.1284 235.756 95.7844 235.564C95.4484 235.364 95.0764 235.264 94.6684 235.264C94.2604 235.264 93.8884 235.36 93.5524 235.552C93.2164 235.744 92.9484 236.024 92.7484 236.392C92.5484 236.76 92.4484 237.192 92.4484 237.688C92.4484 238.192 92.5484 238.632 92.7484 239.008C92.9484 239.376 93.2164 239.66 93.5524 239.86C93.8884 240.052 94.2604 240.148 94.6684 240.148C95.0764 240.148 95.4484 240.052 95.7844 239.86C96.1284 239.66 96.4004 239.376 96.6004 239.008C96.8004 238.632 96.9004 238.196 96.9004 237.7ZM104.141 235.636C104.357 235.26 104.677 234.948 105.101 234.7C105.533 234.444 106.033 234.316 106.601 234.316C107.185 234.316 107.713 234.456 108.185 234.736C108.665 235.016 109.041 235.412 109.313 235.924C109.585 236.428 109.721 237.016 109.721 237.688C109.721 238.352 109.585 238.944 109.313 239.464C109.041 239.984 108.665 240.388 108.185 240.676C107.713 240.964 107.185 241.108 106.601 241.108C106.041 241.108 105.545 240.984 105.113 240.736C104.689 240.48 104.365 240.164 104.141 239.788V244.12H103.049V234.424H104.141V235.636ZM108.605 237.688C108.605 237.192 108.505 236.76 108.305 236.392C108.105 236.024 107.833 235.744 107.489 235.552C107.153 235.36 106.781 235.264 106.373 235.264C105.973 235.264 105.601 235.364 105.257 235.564C104.921 235.756 104.649 236.04 104.441 236.416C104.241 236.784 104.141 237.212 104.141 237.7C104.141 238.196 104.241 238.632 104.441 239.008C104.649 239.376 104.921 239.66 105.257 239.86C105.601 240.052 105.973 240.148 106.373 240.148C106.781 240.148 107.153 240.052 107.489 239.86C107.833 239.66 108.105 239.376 108.305 239.008C108.505 238.632 108.605 238.192 108.605 237.688ZM110.75 237.688C110.75 237.016 110.886 236.428 111.158 235.924C111.43 235.412 111.802 235.016 112.274 234.736C112.754 234.456 113.286 234.316 113.87 234.316C114.446 234.316 114.946 234.44 115.37 234.688C115.794 234.936 116.11 235.248 116.318 235.624V234.424H117.422V241H116.318V239.776C116.102 240.16 115.778 240.48 115.346 240.736C114.922 240.984 114.426 241.108 113.858 241.108C113.274 241.108 112.746 240.964 112.274 240.676C111.802 240.388 111.43 239.984 111.158 239.464C110.886 238.944 110.75 238.352 110.75 237.688ZM116.318 237.7C116.318 237.204 116.218 236.772 116.018 236.404C115.818 236.036 115.546 235.756 115.202 235.564C114.866 235.364 114.494 235.264 114.086 235.264C113.678 235.264 113.306 235.36 112.97 235.552C112.634 235.744 112.366 236.024 112.166 236.392C111.966 236.76 111.866 237.192 111.866 237.688C111.866 238.192 111.966 238.632 112.166 239.008C112.366 239.376 112.634 239.66 112.97 239.86C113.306 240.052 113.678 240.148 114.086 240.148C114.494 240.148 114.866 240.052 115.202 239.86C115.546 239.66 115.818 239.376 116.018 239.008C116.218 238.632 116.318 238.196 116.318 237.7ZM120.36 235.492C120.552 235.116 120.824 234.824 121.176 234.616C121.536 234.408 121.972 234.304 122.484 234.304V235.432H122.196C120.972 235.432 120.36 236.096 120.36 237.424V241H119.268V234.424H120.36V235.492ZM123.336 237.688C123.336 237.016 123.472 236.428 123.744 235.924C124.016 235.412 124.388 235.016 124.86 234.736C125.34 234.456 125.872 234.316 126.456 234.316C127.032 234.316 127.532 234.44 127.956 234.688C128.38 234.936 128.696 235.248 128.904 235.624V234.424H130.008V241H128.904V239.776C128.688 240.16 128.364 240.48 127.932 240.736C127.508 240.984 127.012 241.108 126.444 241.108C125.86 241.108 125.332 240.964 124.86 240.676C124.388 240.388 124.016 239.984 123.744 239.464C123.472 238.944 123.336 238.352 123.336 237.688ZM128.904 237.7C128.904 237.204 128.804 236.772 128.604 236.404C128.404 236.036 128.132 235.756 127.788 235.564C127.452 235.364 127.08 235.264 126.672 235.264C126.264 235.264 125.892 235.36 125.556 235.552C125.22 235.744 124.952 236.024 124.752 236.392C124.552 236.76 124.452 237.192 124.452 237.688C124.452 238.192 124.552 238.632 124.752 239.008C124.952 239.376 125.22 239.66 125.556 239.86C125.892 240.052 126.264 240.148 126.672 240.148C127.08 240.148 127.452 240.052 127.788 239.86C128.132 239.66 128.404 239.376 128.604 239.008C128.804 238.632 128.904 238.196 128.904 237.7ZM136.145 232.636V241H135.053V232.636H136.145ZM141.21 234.304C142.01 234.304 142.658 234.548 143.154 235.036C143.65 235.516 143.898 236.212 143.898 237.124V241H142.818V237.28C142.818 236.624 142.654 236.124 142.326 235.78C141.998 235.428 141.55 235.252 140.982 235.252C140.406 235.252 139.946 235.432 139.602 235.792C139.266 236.152 139.098 236.676 139.098 237.364V241H138.006V234.424H139.098V235.36C139.314 235.024 139.606 234.764 139.974 234.58C140.35 234.396 140.762 234.304 141.21 234.304ZM147.014 235.324V239.2C147.014 239.52 147.082 239.748 147.218 239.884C147.354 240.012 147.59 240.076 147.926 240.076H148.73V241H147.746C147.138 241 146.682 240.86 146.378 240.58C146.074 240.3 145.922 239.84 145.922 239.2V235.324H145.07V234.424H145.922V232.768H147.014V234.424H148.73V235.324H147.014ZM156.053 237.46C156.053 237.668 156.041 237.888 156.017 238.12H150.761C150.801 238.768 151.021 239.276 151.421 239.644C151.829 240.004 152.321 240.184 152.897 240.184C153.369 240.184 153.761 240.076 154.073 239.86C154.393 239.636 154.617 239.34 154.745 238.972H155.921C155.745 239.604 155.393 240.12 154.865 240.52C154.337 240.912 153.681 241.108 152.897 241.108C152.273 241.108 151.713 240.968 151.217 240.688C150.729 240.408 150.345 240.012 150.065 239.5C149.785 238.98 149.645 238.38 149.645 237.7C149.645 237.02 149.781 236.424 150.053 235.912C150.325 235.4 150.705 235.008 151.193 234.736C151.689 234.456 152.257 234.316 152.897 234.316C153.521 234.316 154.073 234.452 154.553 234.724C155.033 234.996 155.401 235.372 155.657 235.852C155.921 236.324 156.053 236.86 156.053 237.46ZM154.925 237.232C154.925 236.816 154.833 236.46 154.649 236.164C154.465 235.86 154.213 235.632 153.893 235.48C153.581 235.32 153.233 235.24 152.849 235.24C152.297 235.24 151.825 235.416 151.433 235.768C151.049 236.12 150.829 236.608 150.773 237.232H154.925ZM158.586 235.492C158.778 235.116 159.05 234.824 159.402 234.616C159.762 234.408 160.198 234.304 160.71 234.304V235.432H160.422C159.198 235.432 158.586 236.096 158.586 237.424V241H157.494V234.424H158.586V235.492ZM165.175 234.304C165.975 234.304 166.623 234.548 167.119 235.036C167.615 235.516 167.863 236.212 167.863 237.124V241H166.783V237.28C166.783 236.624 166.619 236.124 166.291 235.78C165.963 235.428 165.515 235.252 164.947 235.252C164.371 235.252 163.911 235.432 163.567 235.792C163.231 236.152 163.063 236.676 163.063 237.364V241H161.971V234.424H163.063V235.36C163.279 235.024 163.571 234.764 163.939 234.58C164.315 234.396 164.727 234.304 165.175 234.304ZM175.647 237.46C175.647 237.668 175.635 237.888 175.611 238.12H170.355C170.395 238.768 170.615 239.276 171.015 239.644C171.423 240.004 171.915 240.184 172.491 240.184C172.963 240.184 173.355 240.076 173.667 239.86C173.987 239.636 174.211 239.34 174.339 238.972H175.515C175.339 239.604 174.987 240.12 174.459 240.52C173.931 240.912 173.275 241.108 172.491 241.108C171.867 241.108 171.307 240.968 170.811 240.688C170.323 240.408 169.939 240.012 169.659 239.5C169.379 238.98 169.239 238.38 169.239 237.7C169.239 237.02 169.375 236.424 169.647 235.912C169.919 235.4 170.299 235.008 170.787 234.736C171.283 234.456 171.851 234.316 172.491 234.316C173.115 234.316 173.667 234.452 174.147 234.724C174.627 234.996 174.995 235.372 175.251 235.852C175.515 236.324 175.647 236.86 175.647 237.46ZM174.519 237.232C174.519 236.816 174.427 236.46 174.243 236.164C174.059 235.86 173.807 235.632 173.487 235.48C173.175 235.32 172.827 235.24 172.443 235.24C171.891 235.24 171.419 235.416 171.027 235.768C170.643 236.12 170.423 236.608 170.367 237.232H174.519ZM178.42 235.324V239.2C178.42 239.52 178.488 239.748 178.624 239.884C178.76 240.012 178.996 240.076 179.332 240.076H180.136V241H179.152C178.544 241 178.088 240.86 177.784 240.58C177.48 240.3 177.328 239.84 177.328 239.2V235.324H176.476V234.424H177.328V232.768H178.42V234.424H180.136V235.324H178.42Z" fill="white"/>
<rect x="19" y="256" width="129" height="28" rx="14" fill="#4FAF54"/>
<path d="M35.072 265.636V266.524H32.792V274H31.7V266.524H29.408V265.636H35.072ZM42.4162 270.46C42.4162 270.668 42.4042 270.888 42.3802 271.12H37.1242C37.1642 271.768 37.3842 272.276 37.7842 272.644C38.1922 273.004 38.6842 273.184 39.2602 273.184C39.7322 273.184 40.1242 273.076 40.4362 272.86C40.7562 272.636 40.9802 272.34 41.1082 271.972H42.2842C42.1082 272.604 41.7562 273.12 41.2282 273.52C40.7002 273.912 40.0442 274.108 39.2602 274.108C38.6362 274.108 38.0762 273.968 37.5802 273.688C37.0922 273.408 36.7082 273.012 36.4282 272.5C36.1482 271.98 36.0082 271.38 36.0082 270.7C36.0082 270.02 36.1442 269.424 36.4162 268.912C36.6882 268.4 37.0682 268.008 37.5562 267.736C38.0522 267.456 38.6202 267.316 39.2602 267.316C39.8842 267.316 40.4362 267.452 40.9162 267.724C41.3962 267.996 41.7642 268.372 42.0202 268.852C42.2842 269.324 42.4162 269.86 42.4162 270.46ZM41.2882 270.232C41.2882 269.816 41.1962 269.46 41.0122 269.164C40.8282 268.86 40.5762 268.632 40.2562 268.48C39.9442 268.32 39.5962 268.24 39.2122 268.24C38.6602 268.24 38.1882 268.416 37.7962 268.768C37.4122 269.12 37.1922 269.608 37.1362 270.232H41.2882ZM40.3882 265.564L37.8322 266.932V266.116L40.3882 264.616V265.564ZM43.4496 270.7C43.4496 270.02 43.5856 269.428 43.8576 268.924C44.1296 268.412 44.5056 268.016 44.9856 267.736C45.4736 267.456 46.0296 267.316 46.6536 267.316C47.4616 267.316 48.1256 267.512 48.6456 267.904C49.1736 268.296 49.5216 268.84 49.6896 269.536H48.5136C48.4016 269.136 48.1816 268.82 47.8536 268.588C47.5336 268.356 47.1336 268.24 46.6536 268.24C46.0296 268.24 45.5256 268.456 45.1416 268.888C44.7576 269.312 44.5656 269.916 44.5656 270.7C44.5656 271.492 44.7576 272.104 45.1416 272.536C45.5256 272.968 46.0296 273.184 46.6536 273.184C47.1336 273.184 47.5336 273.072 47.8536 272.848C48.1736 272.624 48.3936 272.304 48.5136 271.888H49.6896C49.5136 272.56 49.1616 273.1 48.6336 273.508C48.1056 273.908 47.4456 274.108 46.6536 274.108C46.0296 274.108 45.4736 273.968 44.9856 273.688C44.5056 273.408 44.1296 273.012 43.8576 272.5C43.5856 271.988 43.4496 271.388 43.4496 270.7ZM54.3507 267.304C55.1507 267.304 55.7987 267.548 56.2947 268.036C56.7907 268.516 57.0387 269.212 57.0387 270.124V274H55.9587V270.28C55.9587 269.624 55.7947 269.124 55.4667 268.78C55.1387 268.428 54.6907 268.252 54.1227 268.252C53.5467 268.252 53.0867 268.432 52.7427 268.792C52.4067 269.152 52.2387 269.676 52.2387 270.364V274H51.1467V267.424H52.2387V268.36C52.4547 268.024 52.7467 267.764 53.1147 267.58C53.4907 267.396 53.9027 267.304 54.3507 267.304ZM59.3864 266.356C59.1784 266.356 59.0024 266.284 58.8584 266.14C58.7144 265.996 58.6424 265.82 58.6424 265.612C58.6424 265.404 58.7144 265.228 58.8584 265.084C59.0024 264.94 59.1784 264.868 59.3864 264.868C59.5864 264.868 59.7544 264.94 59.8904 265.084C60.0344 265.228 60.1064 265.404 60.1064 265.612C60.1064 265.82 60.0344 265.996 59.8904 266.14C59.7544 266.284 59.5864 266.356 59.3864 266.356ZM59.9144 267.424V274H58.8224V267.424H59.9144ZM61.3676 270.7C61.3676 270.02 61.5036 269.428 61.7756 268.924C62.0476 268.412 62.4236 268.016 62.9036 267.736C63.3916 267.456 63.9476 267.316 64.5716 267.316C65.3796 267.316 66.0436 267.512 66.5636 267.904C67.0916 268.296 67.4396 268.84 67.6076 269.536H66.4316C66.3196 269.136 66.0996 268.82 65.7716 268.588C65.4516 268.356 65.0516 268.24 64.5716 268.24C63.9476 268.24 63.4436 268.456 63.0596 268.888C62.6756 269.312 62.4836 269.916 62.4836 270.7C62.4836 271.492 62.6756 272.104 63.0596 272.536C63.4436 272.968 63.9476 273.184 64.5716 273.184C65.0516 273.184 65.4516 273.072 65.7716 272.848C66.0916 272.624 66.3116 272.304 66.4316 271.888H67.6076C67.4316 272.56 67.0796 273.1 66.5516 273.508C66.0236 273.908 65.3636 274.108 64.5716 274.108C63.9476 274.108 63.3916 273.968 62.9036 273.688C62.4236 273.408 62.0476 273.012 61.7756 272.5C61.5036 271.988 61.3676 271.388 61.3676 270.7ZM71.9326 274.108C71.3166 274.108 70.7566 273.968 70.2526 273.688C69.7566 273.408 69.3646 273.012 69.0766 272.5C68.7966 271.98 68.6566 271.38 68.6566 270.7C68.6566 270.028 68.8006 269.436 69.0886 268.924C69.3846 268.404 69.7846 268.008 70.2886 267.736C70.7926 267.456 71.3566 267.316 71.9806 267.316C72.6046 267.316 73.1686 267.456 73.6726 267.736C74.1766 268.008 74.5726 268.4 74.8606 268.912C75.1566 269.424 75.3046 270.02 75.3046 270.7C75.3046 271.38 75.1526 271.98 74.8486 272.5C74.5526 273.012 74.1486 273.408 73.6366 273.688C73.1246 273.968 72.5566 274.108 71.9326 274.108ZM71.9326 273.148C72.3246 273.148 72.6926 273.056 73.0366 272.872C73.3806 272.688 73.6566 272.412 73.8646 272.044C74.0806 271.676 74.1886 271.228 74.1886 270.7C74.1886 270.172 74.0846 269.724 73.8766 269.356C73.6686 268.988 73.3966 268.716 73.0606 268.54C72.7246 268.356 72.3606 268.264 71.9686 268.264C71.5686 268.264 71.2006 268.356 70.8646 268.54C70.5366 268.716 70.2726 268.988 70.0726 269.356C69.8726 269.724 69.7726 270.172 69.7726 270.7C69.7726 271.236 69.8686 271.688 70.0606 272.056C70.2606 272.424 70.5246 272.7 70.8526 272.884C71.1806 273.06 71.5406 273.148 71.9326 273.148ZM81.0316 265.636V274H79.9396V265.636H81.0316ZM86.0968 267.304C86.8968 267.304 87.5448 267.548 88.0408 268.036C88.5368 268.516 88.7848 269.212 88.7848 270.124V274H87.7048V270.28C87.7048 269.624 87.5408 269.124 87.2128 268.78C86.8848 268.428 86.4368 268.252 85.8688 268.252C85.2928 268.252 84.8328 268.432 84.4888 268.792C84.1528 269.152 83.9848 269.676 83.9848 270.364V274H82.8928V267.424H83.9848V268.36C84.2008 268.024 84.4928 267.764 84.8608 267.58C85.2368 267.396 85.6488 267.304 86.0968 267.304ZM91.9005 268.324V272.2C91.9005 272.52 91.9685 272.748 92.1045 272.884C92.2405 273.012 92.4765 273.076 92.8125 273.076H93.6165V274H92.6325C92.0245 274 91.5685 273.86 91.2645 273.58C90.9605 273.3 90.8085 272.84 90.8085 272.2V268.324H89.9565V267.424H90.8085V265.768H91.9005V267.424H93.6165V268.324H91.9005ZM100.94 270.46C100.94 270.668 100.928 270.888 100.904 271.12H95.6476C95.6876 271.768 95.9076 272.276 96.3076 272.644C96.7156 273.004 97.2076 273.184 97.7836 273.184C98.2556 273.184 98.6476 273.076 98.9596 272.86C99.2796 272.636 99.5036 272.34 99.6316 271.972H100.808C100.632 272.604 100.28 273.12 99.7516 273.52C99.2236 273.912 98.5676 274.108 97.7836 274.108C97.1596 274.108 96.5996 273.968 96.1036 273.688C95.6156 273.408 95.2316 273.012 94.9516 272.5C94.6716 271.98 94.5316 271.38 94.5316 270.7C94.5316 270.02 94.6676 269.424 94.9396 268.912C95.2116 268.4 95.5916 268.008 96.0796 267.736C96.5756 267.456 97.1436 267.316 97.7836 267.316C98.4076 267.316 98.9596 267.452 99.4396 267.724C99.9196 267.996 100.288 268.372 100.544 268.852C100.808 269.324 100.94 269.86 100.94 270.46ZM99.8116 270.232C99.8116 269.816 99.7196 269.46 99.5356 269.164C99.3516 268.86 99.0996 268.632 98.7796 268.48C98.4676 268.32 98.1196 268.24 97.7356 268.24C97.1836 268.24 96.7116 268.416 96.3196 268.768C95.9356 269.12 95.7156 269.608 95.6596 270.232H99.8116ZM105.093 267.316C105.661 267.316 106.157 267.44 106.581 267.688C107.013 267.936 107.333 268.248 107.541 268.624V267.424H108.645V274.144C108.645 274.744 108.517 275.276 108.261 275.74C108.005 276.212 107.637 276.58 107.157 276.844C106.685 277.108 106.133 277.24 105.501 277.24C104.637 277.24 103.917 277.036 103.341 276.628C102.765 276.22 102.425 275.664 102.321 274.96H103.401C103.521 275.36 103.769 275.68 104.145 275.92C104.521 276.168 104.973 276.292 105.501 276.292C106.101 276.292 106.589 276.104 106.965 275.728C107.349 275.352 107.541 274.824 107.541 274.144V272.764C107.325 273.148 107.005 273.468 106.581 273.724C106.157 273.98 105.661 274.108 105.093 274.108C104.509 274.108 103.977 273.964 103.497 273.676C103.025 273.388 102.653 272.984 102.381 272.464C102.109 271.944 101.973 271.352 101.973 270.688C101.973 270.016 102.109 269.428 102.381 268.924C102.653 268.412 103.025 268.016 103.497 267.736C103.977 267.456 104.509 267.316 105.093 267.316ZM107.541 270.7C107.541 270.204 107.441 269.772 107.241 269.404C107.041 269.036 106.769 268.756 106.425 268.564C106.089 268.364 105.717 268.264 105.309 268.264C104.901 268.264 104.529 268.36 104.193 268.552C103.857 268.744 103.589 269.024 103.389 269.392C103.189 269.76 103.089 270.192 103.089 270.688C103.089 271.192 103.189 271.632 103.389 272.008C103.589 272.376 103.857 272.66 104.193 272.86C104.529 273.052 104.901 273.148 105.309 273.148C105.717 273.148 106.089 273.052 106.425 272.86C106.769 272.66 107.041 272.376 107.241 272.008C107.441 271.632 107.541 271.196 107.541 270.7ZM111.582 268.492C111.774 268.116 112.046 267.824 112.398 267.616C112.758 267.408 113.194 267.304 113.706 267.304V268.432H113.418C112.194 268.432 111.582 269.096 111.582 270.424V274H110.49V267.424H111.582V268.492ZM114.559 270.688C114.559 270.016 114.695 269.428 114.967 268.924C115.239 268.412 115.611 268.016 116.083 267.736C116.563 267.456 117.095 267.316 117.679 267.316C118.255 267.316 118.755 267.44 119.179 267.688C119.603 267.936 119.919 268.248 120.127 268.624V267.424H121.231V274H120.127V272.776C119.911 273.16 119.587 273.48 119.155 273.736C118.731 273.984 118.235 274.108 117.667 274.108C117.083 274.108 116.555 273.964 116.083 273.676C115.611 273.388 115.239 272.984 114.967 272.464C114.695 271.944 114.559 271.352 114.559 270.688ZM120.127 270.7C120.127 270.204 120.027 269.772 119.827 269.404C119.627 269.036 119.355 268.756 119.011 268.564C118.675 268.364 118.303 268.264 117.895 268.264C117.487 268.264 117.115 268.36 116.779 268.552C116.443 268.744 116.175 269.024 115.975 269.392C115.775 269.76 115.675 270.192 115.675 270.688C115.675 271.192 115.775 271.632 115.975 272.008C116.175 272.376 116.443 272.66 116.779 272.86C117.115 273.052 117.487 273.148 117.895 273.148C118.303 273.148 118.675 273.052 119.011 272.86C119.355 272.66 119.627 272.376 119.827 272.008C120.027 271.632 120.127 271.196 120.127 270.7ZM122.668 270.688C122.668 270.016 122.804 269.428 123.076 268.924C123.348 268.412 123.72 268.016 124.192 267.736C124.672 267.456 125.208 267.316 125.8 267.316C126.312 267.316 126.788 267.436 127.228 267.676C127.668 267.908 128.004 268.216 128.236 268.6V265.12H129.34V274H128.236V272.764C128.02 273.156 127.7 273.48 127.276 273.736C126.852 273.984 126.356 274.108 125.788 274.108C125.204 274.108 124.672 273.964 124.192 273.676C123.72 273.388 123.348 272.984 123.076 272.464C122.804 271.944 122.668 271.352 122.668 270.688ZM128.236 270.7C128.236 270.204 128.136 269.772 127.936 269.404C127.736 269.036 127.464 268.756 127.12 268.564C126.784 268.364 126.412 268.264 126.004 268.264C125.596 268.264 125.224 268.36 124.888 268.552C124.552 268.744 124.284 269.024 124.084 269.392C123.884 269.76 123.784 270.192 123.784 270.688C123.784 271.192 123.884 271.632 124.084 272.008C124.284 272.376 124.552 272.66 124.888 272.86C125.224 273.052 125.596 273.148 126.004 273.148C126.412 273.148 126.784 273.052 127.12 272.86C127.464 272.66 127.736 272.376 127.936 272.008C128.136 271.632 128.236 271.196 128.236 270.7ZM134.054 274.108C133.438 274.108 132.878 273.968 132.374 273.688C131.878 273.408 131.486 273.012 131.198 272.5C130.918 271.98 130.778 271.38 130.778 270.7C130.778 270.028 130.922 269.436 131.21 268.924C131.506 268.404 131.906 268.008 132.41 267.736C132.914 267.456 133.478 267.316 134.102 267.316C134.726 267.316 135.29 267.456 135.794 267.736C136.298 268.008 136.694 268.4 136.982 268.912C137.278 269.424 137.426 270.02 137.426 270.7C137.426 271.38 137.274 271.98 136.97 272.5C136.674 273.012 136.27 273.408 135.758 273.688C135.246 273.968 134.678 274.108 134.054 274.108ZM134.054 273.148C134.446 273.148 134.814 273.056 135.158 272.872C135.502 272.688 135.778 272.412 135.986 272.044C136.202 271.676 136.31 271.228 136.31 270.7C136.31 270.172 136.206 269.724 135.998 269.356C135.79 268.988 135.518 268.716 135.182 268.54C134.846 268.356 134.482 268.264 134.09 268.264C133.69 268.264 133.322 268.356 132.986 268.54C132.658 268.716 132.394 268.988 132.194 269.356C131.994 269.724 131.894 270.172 131.894 270.7C131.894 271.236 131.99 271.688 132.182 272.056C132.382 272.424 132.646 272.7 132.974 272.884C133.302 273.06 133.662 273.148 134.054 273.148Z" fill="white"/>
<rect x="153" y="256" width="59" height="28" rx="14" fill="#404040"/>
<path d="M163.612 273.124C164.628 272.308 165.424 271.64 166 271.12C166.576 270.592 167.06 270.044 167.452 269.476C167.852 268.9 168.052 268.336 168.052 267.784C168.052 267.264 167.924 266.856 167.668 266.56C167.42 266.256 167.016 266.104 166.456 266.104C165.912 266.104 165.488 266.276 165.184 266.62C164.888 266.956 164.728 267.408 164.704 267.976H163.648C163.68 267.08 163.952 266.388 164.464 265.9C164.976 265.412 165.636 265.168 166.444 265.168C167.268 265.168 167.92 265.396 168.4 265.852C168.888 266.308 169.132 266.936 169.132 267.736C169.132 268.4 168.932 269.048 168.532 269.68C168.14 270.304 167.692 270.856 167.188 271.336C166.684 271.808 166.04 272.36 165.256 272.992H169.384V273.904H163.612V273.124ZM170.646 269.572C170.646 268.196 170.87 267.124 171.318 266.356C171.766 265.58 172.55 265.192 173.67 265.192C174.782 265.192 175.562 265.58 176.01 266.356C176.458 267.124 176.682 268.196 176.682 269.572C176.682 270.972 176.458 272.06 176.01 272.836C175.562 273.612 174.782 274 173.67 274C172.55 274 171.766 273.612 171.318 272.836C170.87 272.06 170.646 270.972 170.646 269.572ZM175.602 269.572C175.602 268.876 175.554 268.288 175.458 267.808C175.37 267.32 175.182 266.928 174.894 266.632C174.614 266.336 174.206 266.188 173.67 266.188C173.126 266.188 172.71 266.336 172.422 266.632C172.142 266.928 171.954 267.32 171.858 267.808C171.77 268.288 171.726 268.876 171.726 269.572C171.726 270.292 171.77 270.896 171.858 271.384C171.954 271.872 172.142 272.264 172.422 272.56C172.71 272.856 173.126 273.004 173.67 273.004C174.206 273.004 174.614 272.856 174.894 272.56C175.182 272.264 175.37 271.872 175.458 271.384C175.554 270.896 175.602 270.292 175.602 269.572ZM178.05 273.124C179.066 272.308 179.862 271.64 180.438 271.12C181.014 270.592 181.498 270.044 181.89 269.476C182.29 268.9 182.49 268.336 182.49 267.784C182.49 267.264 182.362 266.856 182.106 266.56C181.858 266.256 181.454 266.104 180.894 266.104C180.35 266.104 179.926 266.276 179.622 266.62C179.326 266.956 179.166 267.408 179.142 267.976H178.086C178.118 267.08 178.39 266.388 178.902 265.9C179.414 265.412 180.074 265.168 180.882 265.168C181.706 265.168 182.358 265.396 182.838 265.852C183.326 266.308 183.57 266.936 183.57 267.736C183.57 268.4 183.37 269.048 182.97 269.68C182.578 270.304 182.13 270.856 181.626 271.336C181.122 271.808 180.478 272.36 179.694 272.992H183.822V273.904H178.05V273.124ZM190.616 266.272H186.404V269.008C186.588 268.752 186.86 268.544 187.22 268.384C187.58 268.216 187.968 268.132 188.384 268.132C189.048 268.132 189.588 268.272 190.004 268.552C190.42 268.824 190.716 269.18 190.892 269.62C191.076 270.052 191.168 270.512 191.168 271C191.168 271.576 191.06 272.092 190.844 272.548C190.628 273.004 190.296 273.364 189.848 273.628C189.408 273.892 188.86 274.024 188.204 274.024C187.364 274.024 186.684 273.808 186.164 273.376C185.644 272.944 185.328 272.368 185.216 271.648H186.284C186.388 272.104 186.608 272.46 186.944 272.716C187.28 272.972 187.704 273.1 188.216 273.1C188.848 273.1 189.324 272.912 189.644 272.536C189.964 272.152 190.124 271.648 190.124 271.024C190.124 270.4 189.964 269.92 189.644 269.584C189.324 269.24 188.852 269.068 188.228 269.068C187.804 269.068 187.432 269.172 187.112 269.38C186.8 269.58 186.572 269.856 186.428 270.208H185.396V265.312H190.616V266.272ZM193.147 274.072C192.939 274.072 192.763 274 192.619 273.856C192.475 273.712 192.403 273.536 192.403 273.328C192.403 273.12 192.475 272.944 192.619 272.8C192.763 272.656 192.939 272.584 193.147 272.584C193.347 272.584 193.515 272.656 193.651 272.8C193.795 272.944 193.867 273.12 193.867 273.328C193.867 273.536 193.795 273.712 193.651 273.856C193.515 274 193.347 274.072 193.147 274.072ZM195.007 273.124C196.023 272.308 196.819 271.64 197.395 271.12C197.971 270.592 198.455 270.044 198.847 269.476C199.247 268.9 199.447 268.336 199.447 267.784C199.447 267.264 199.319 266.856 199.063 266.56C198.815 266.256 198.411 266.104 197.851 266.104C197.307 266.104 196.883 266.276 196.579 266.62C196.283 266.956 196.123 267.408 196.099 267.976H195.043C195.075 267.08 195.347 266.388 195.859 265.9C196.371 265.412 197.031 265.168 197.839 265.168C198.663 265.168 199.315 265.396 199.795 265.852C200.283 266.308 200.527 266.936 200.527 267.736C200.527 268.4 200.327 269.048 199.927 269.68C199.535 270.304 199.087 270.856 198.583 271.336C198.079 271.808 197.435 272.36 196.651 272.992H200.779V273.904H195.007V273.124Z" fill="white"/>
</g>
<defs>
<filter id="filter0_d_192_713" x="0" y="0" width="328" height="310" filterUnits="userSpaceOnUse" color-interpolation-filters="sRGB">
<feFlood flood-opacity="0" result="BackgroundImageFix"/>
<feColorMatrix in="SourceAlpha" type="matrix" values="0 0 0 0 0 0 0 0 0 0 0 0 0 0 0 0 0 0 127 0" result="hardAlpha"/>
<feOffset dy="2"/>
<feGaussianBlur stdDeviation="2"/>
<feComposite in2="hardAlpha" operator="out"/>
<feColorMatrix type="matrix" values="0 0 0 0 0 0 0 0 0 0 0 0 0 0 0 0 0 0 0.25 0"/>
<feBlend mode="normal" in2="BackgroundImageFix" result="effect1_dropShadow_192_713"/>
<feBlend mode="normal" in="SourceGraphic" in2="effect1_dropShadow_192_713" result="shape"/>
</filter>
</defs>
</svg>
